<svg xmlns="http://www.w3.org/2000/svg" width="30" height="30" viewBox="0 0 512 512" version="1.1">
	<path d="M 238 43.565 C 236.625 43.801, 231.450 44.499, 226.500 45.116 C 208.120 47.407, 182.671 54.922, 164.565 63.405 C 96.724 95.188, 51 167.735, 51 243.591 C 51 272.090, 56.287 298.678, 66.818 323.134 C 85.855 367.343, 119.303 402.438, 162.500 423.526 C 192.823 438.330, 222.147 445.011, 256.711 444.992 C 285.237 444.976, 308.543 440.678, 333.270 430.874 C 361.138 419.824, 382.669 405.471, 403.027 384.373 C 417.954 368.903, 428.501 354.056, 437.745 335.500 C 452.852 305.175, 459.029 279.361, 459.041 246.500 C 459.049 223.654, 457.951 214.215, 452.915 193.883 C 439.344 139.088, 406.516 95.597, 358 68.139 C 338.104 56.879, 317.252 49.402, 294.500 45.369 C 286.838 44.010, 243.463 42.626, 238 43.565 M 248 58.461 C 247.175 58.658, 243.125 59.368, 239 60.038 C 216.126 63.755, 188.456 78.048, 153.867 104.016 C 142.869 112.273, 141.568 113.543, 143.809 113.835 C 150.742 114.737, 154.395 113.114, 165.056 104.393 C 198.937 76.678, 229.226 64.017, 261.678 64.004 C 287.639 63.994, 308.314 70.614, 337.795 88.377 C 358.012 100.557, 363.789 105.509, 393.736 136.329 C 401.566 144.386, 409.381 152.896, 411.102 155.240 C 413.416 158.390, 414.037 158.849, 413.487 157 C 411.507 150.346, 403.204 136.933, 395.059 127.232 C 379.528 108.733, 337.475 80.738, 304.890 67.204 C 289.311 60.734, 280.592 58.870, 264 58.460 C 256.025 58.263, 248.825 58.264, 248 58.461 M 245.622 87.555 C 241.839 88.306, 235.089 90.117, 230.622 91.579 C 222.028 94.392, 202.200 103.743, 198.012 106.958 L 195.523 108.868 198.181 109.879 C 199.643 110.434, 201.293 111.702, 201.849 112.695 C 202.797 114.389, 205.359 114.500, 243.510 114.500 C 280.395 114.500, 284.274 114.345, 285.387 112.823 C 286.451 111.369, 289.190 111.115, 306.057 110.911 C 323 110.707, 325.539 110.877, 325.804 112.237 C 325.976 113.124, 327.604 114.078, 329.572 114.448 C 333.383 115.163, 350.189 114.913, 356.500 114.048 L 360.500 113.500 357 110.858 C 344.444 101.381, 315.698 91.167, 291.182 87.471 C 279.221 85.668, 254.891 85.713, 245.622 87.555 M 165.336 116.567 C 165.005 117.429, 165.132 118.512, 165.617 118.974 C 167.083 120.369, 198 118.936, 198 117.473 C 198 115.506, 194.446 115.028, 179.719 115.014 C 168.120 115.002, 165.842 115.248, 165.336 116.567 M 293.689 115.664 C 290.786 116.018, 289.955 116.530, 290.202 117.814 C 290.484 119.288, 292.359 119.535, 305.119 119.776 C 317.313 120.006, 319.924 119.797, 320.999 118.502 C 321.706 117.649, 322.030 116.697, 321.718 116.385 C 320.976 115.642, 298.600 115.067, 293.689 115.664 M 116.553 212.250 C 116.173 263.538, 116.005 318.550, 116.181 334.500 L 116.500 363.500 238.250 363.754 C 335.312 363.956, 360.006 363.754, 360.030 362.754 C 360.507 342.535, 360.133 121.025, 359.620 120.195 C 359.100 119.352, 354.351 119, 343.512 119 C 326.073 119, 325.542 119.206, 324.467 126.375 C 323.765 131.050, 326.011 141.841, 328.463 145.585 C 330.005 147.938, 336.973 148.980, 351.250 148.993 C 355.512 148.997, 359 149.384, 359 149.853 C 359 150.806, 347.024 152, 337.477 152 L 331.256 152 330.580 156.224 C 329.324 164.078, 329.588 164, 304.380 164 C 283.347 164, 282.011 163.889, 281.035 162.066 C 280.466 161.002, 280 158.947, 280 157.500 C 280 156.053, 279.534 153.998, 278.965 152.934 C 277.973 151.081, 276.526 151, 244.399 151 C 223.198 151, 210.157 151.381, 208.934 152.035 C 207.870 152.605, 207 153.969, 207 155.067 C 207 156.166, 206.348 158.625, 205.551 160.532 L 204.102 164 181.086 164 C 155.130 164, 156.844 164.554, 155.567 155.750 L 154.877 151 136.939 151 C 127.072 151, 119 150.600, 119 150.112 C 119 149.623, 127.036 149.056, 136.858 148.852 C 150.796 148.563, 155.110 148.154, 156.516 146.991 C 159.915 144.177, 161.955 137.902, 161.978 130.184 C 162.014 118.323, 163.429 119, 138.586 119 L 117.243 119 116.553 212.250 M 209.208 119.725 C 202.352 120.068, 201.854 120.251, 200.872 122.795 C 199.188 127.155, 200.302 136.898, 203.124 142.500 L 205.643 147.500 242.723 147.762 L 279.802 148.024 282.328 145.022 C 286.650 139.885, 288.187 126.108, 285.008 121 C 284.210 119.717, 279.187 119.490, 250.287 119.430 C 231.704 119.392, 213.219 119.524, 209.208 119.725 M 162.647 145.478 C 162.136 146.808, 164.467 147, 181.115 147 C 195.911 147, 200.074 146.721, 199.751 145.750 C 199.443 144.825, 194.637 144.429, 181.283 144.228 C 165.873 143.996, 163.145 144.179, 162.647 145.478 M 288 145.477 C 288 146.785, 290.554 147, 306.083 147 C 320.105 147, 324.073 146.719, 323.751 145.750 C 323.444 144.827, 318.714 144.429, 305.668 144.227 C 290.391 143.991, 288 144.160, 288 145.477 M 178.217 151.250 C 175.967 153.987, 176.389 157.671, 179.048 158.515 C 183.381 159.890, 186.086 153.187, 182.066 151.035 C 179.622 149.728, 179.461 149.737, 178.217 151.250 M 305.518 151.625 C 302.226 154.916, 305.911 160.805, 309.750 158.388 C 312.203 156.843, 312.483 154.191, 310.433 151.926 C 308.309 149.579, 307.606 149.536, 305.518 151.625 M 387.888 171.500 C 379.494 176.062, 383.240 189.273, 392.927 189.273 C 397.878 189.273, 401.578 186.952, 403.691 182.523 C 405.059 179.652, 405.107 178.674, 404.010 176.025 C 401.744 170.554, 393.754 168.312, 387.888 171.500 M 140.654 189 C 140.569 189.275, 140.622 208.062, 140.772 230.749 L 141.044 271.999 238.272 271.749 L 335.500 271.500 335.500 230.254 L 335.500 189.008 238.154 188.754 C 184.614 188.614, 140.739 188.725, 140.654 189 M 144 210.500 L 144 230 166.522 230 L 189.043 230 188.772 210.750 L 188.500 191.500 171.750 191.194 L 155 190.888 155 195.444 C 155 197.950, 154.550 200, 154 200 C 153.450 200, 153 197.975, 153 195.500 L 153 191 148.500 191 L 144 191 144 210.500 M 192 192.402 C 192 193.356, 192.568 193.719, 193.500 193.362 C 194.325 193.045, 195 193.298, 195 193.924 C 195 194.551, 194.325 195.322, 193.500 195.638 C 192.249 196.119, 192 199.013, 192 213.107 L 192 230 214.500 230 L 237 230 237 211 L 237 192 223.250 191.847 C 215.688 191.763, 207.395 191.645, 204.822 191.585 C 200.156 191.475, 200.146 191.482, 200.659 194.487 C 200.942 196.144, 201.325 198.010, 201.510 198.633 C 201.719 199.336, 200.363 199.787, 197.941 199.820 L 194.035 199.874 196.767 197.498 C 199.009 195.548, 199.302 194.796, 198.399 193.311 C 196.972 190.963, 192 190.257, 192 192.402 M 240 210.500 L 240 230 262.500 230 L 285 230 285 211 L 285 192 266.724 192 L 248.447 192 248.829 196 C 249.205 199.942, 249.162 200, 245.883 200 C 242.586 200, 242.576 199.986, 244.777 198.443 C 248.959 195.514, 247.225 191, 241.918 191 C 240.093 191, 240 191.944, 240 210.500 M 288.012 192.197 C 288.019 192.913, 287.907 201.600, 287.762 211.500 L 287.500 229.500 310.250 229.769 L 333 230.038 333 211.019 L 333 192 316.250 191.934 C 307.038 191.898, 296.913 191.649, 293.750 191.381 C 289.438 191.015, 288.003 191.219, 288.012 192.197 M 79.623 199.178 C 76.369 205.942, 72.940 217.404, 73.094 221 C 73.151 222.333, 73.218 222.333, 73.701 221 C 82.025 197.991, 83.887 192.554, 83.556 192.223 C 83.338 192.004, 81.568 195.134, 79.623 199.178 M 295.250 193.667 C 293.452 194.386, 293.710 196, 295.622 196 C 297.001 196, 297.044 196.242, 295.907 197.612 C 295.171 198.498, 293.654 199.636, 292.535 200.140 C 290.767 200.936, 290.828 200.989, 293 200.542 C 294.375 200.259, 296.316 200.021, 297.313 200.014 C 298.747 200.003, 299.061 199.336, 298.813 196.827 C 298.496 193.617, 297.526 192.756, 295.250 193.667 M 242 195 C 242 195.550, 242.675 196, 243.500 196 C 244.325 196, 245 195.550, 245 195 C 245 194.450, 244.325 194, 243.500 194 C 242.675 194, 242 194.450, 242 195 M 290 196.059 C 290 196.641, 290.450 196.840, 291 196.500 C 291.550 196.160, 292 195.684, 292 195.441 C 292 195.198, 291.550 195, 291 195 C 290.450 195, 290 195.477, 290 196.059 M 418.453 201.500 C 421.561 214.205, 422.186 219.445, 422.686 237 C 423.505 265.738, 419.828 290.942, 410.514 320.446 C 408.613 326.466, 407.162 331.495, 407.288 331.622 C 407.952 332.286, 421.720 308.845, 424.660 302.044 C 437.302 272.804, 436.876 241.915, 423.394 210.282 C 418.530 198.869, 417.254 196.602, 418.453 201.500 M 397.274 224.320 C 397.008 236.266, 395.709 245.720, 392.442 259.500 C 388.842 274.683, 376.389 310.436, 371.070 320.864 C 368.012 326.857, 368.471 326.774, 374.038 320.331 C 385.131 307.491, 395.904 287.799, 399.932 273 C 402.948 261.920, 404.107 248.192, 402.961 237.127 C 402.004 227.885, 399.484 216.146, 398.173 214.820 C 397.803 214.447, 397.398 218.722, 397.274 224.320 M 143 233.399 C 143 234.190, 143.278 235.561, 143.618 236.448 C 144.174 237.895, 144.370 237.877, 145.551 236.279 C 146.580 234.887, 147.131 234.762, 148.090 235.708 C 149.057 236.660, 149.045 237.241, 148.035 238.458 C 147.331 239.306, 146.135 240, 145.378 240 C 144.271 240, 144 242.851, 144 254.500 L 144 269 166.523 269 L 189.045 269 188.773 250.750 L 188.500 232.500 165.750 232.231 C 146.513 232.004, 143 232.184, 143 233.399 M 191.370 234.250 C 191.701 235.488, 191.979 243.813, 191.986 252.750 L 192 269 214.500 269 L 237 269 237 250.500 L 237 232 213.883 232 L 190.767 232 191.370 234.250 M 239.833 232.988 C 239.650 233.531, 239.633 241.856, 239.795 251.488 L 240.089 269 262.545 269 L 285 269 284.986 252.750 C 284.979 243.813, 284.701 235.488, 284.370 234.250 C 283.768 232.004, 283.729 232, 261.967 232 C 248.507 232, 240.039 232.378, 239.833 232.988 M 287 235.500 C 287 239.569, 287.526 239.807, 289.934 236.833 C 291.854 234.462, 295 234.857, 295 237.469 C 295 239.700, 291.158 243.218, 289.714 242.310 C 288.843 241.763, 288.971 241.453, 290.165 241.217 C 291.788 240.894, 293.486 238.153, 292.607 237.274 C 292.365 237.031, 291.247 237.753, 290.123 238.877 C 288.320 240.680, 288.015 242.572, 287.542 254.921 L 287.004 268.921 307.252 269.211 C 318.388 269.370, 328.738 269.358, 330.250 269.184 L 333 268.867 333 250.434 L 333 232 310 232 L 287 232 287 235.500 M 149.428 239.173 C 146.835 241.894, 146.180 243.034, 147.500 242.528 C 149.578 241.732, 150.167 241.700, 153.500 242.200 C 155.005 242.426, 155.574 241.859, 155.801 239.914 C 155.966 238.492, 155.484 236.816, 154.729 236.190 C 153.647 235.292, 152.525 235.924, 149.428 239.173 M 195.250 235.662 C 194.563 235.940, 194 236.859, 194 237.706 C 194 239.024, 194.238 239.048, 195.664 237.872 C 197.166 236.633, 197.216 236.710, 196.175 238.663 C 195.541 239.852, 194.455 241.028, 193.761 241.276 C 193.068 241.524, 192.804 242.054, 193.175 242.455 C 193.546 242.855, 194.648 242.737, 195.622 242.191 C 196.665 241.608, 198.311 241.548, 199.620 242.046 C 202.514 243.146, 204.451 240.935, 203.593 237.513 C 202.695 233.937, 200.926 234.381, 201.650 238 C 202.120 240.349, 201.897 241, 200.625 241 C 199.486 241, 199 240.103, 199 238 C 199 235.096, 198.078 234.521, 195.250 235.662 M 242.667 235.667 C 241.309 237.024, 241.969 239.949, 243.500 239.362 C 244.325 239.045, 245 239.284, 245 239.893 C 245 240.502, 244.073 241, 242.941 241 C 241.809 241, 241.134 241.408, 241.442 241.906 C 243.076 244.551, 248.359 239.419, 247.265 236.250 C 246.808 234.926, 243.790 234.543, 242.667 235.667 M 250 237.450 C 250 238.798, 249.213 240.359, 248.250 240.920 C 246.746 241.796, 246.878 241.943, 249.183 241.970 C 252.064 242.002, 253.540 239.570, 252.416 236.641 C 251.470 234.175, 250 234.668, 250 237.450 M 297.208 237.961 C 297.516 240.064, 297.187 241.045, 296.071 241.345 C 295.207 241.578, 295.685 241.820, 297.133 241.884 C 298.878 241.961, 299.908 241.409, 300.185 240.250 C 300.854 237.451, 299.981 235, 298.313 235 C 297.175 235, 296.886 235.773, 297.208 237.961 M 243.500 237 C 243.160 237.550, 243.359 238, 243.941 238 C 244.523 238, 245 237.550, 245 237 C 245 236.450, 244.802 236, 244.559 236 C 244.316 236, 243.840 236.450, 243.500 237 M 152 239.500 C 152 240.325, 152.450 241, 153 241 C 153.550 241, 154 240.325, 154 239.500 C 154 238.675, 153.550 238, 153 238 C 152.450 238, 152 238.675, 152 239.500 M 93.937 242.872 C 94.656 244.221, 94.943 246.593, 94.602 248.372 C 94.172 250.615, 94.281 251.076, 94.986 250 C 96.516 247.667, 96.174 243.388, 94.336 241.872 C 92.820 240.621, 92.784 240.710, 93.937 242.872 M 80.384 243.442 C 79.446 245.885, 80.428 248.459, 82.445 248.847 C 84.824 249.305, 86.963 246.574, 86.278 243.954 C 85.671 241.633, 81.226 241.247, 80.384 243.442 M 154.500 304.948 C 145.634 305.393, 143.500 305.791, 143.500 307 C 143.500 308.156, 145.222 308.615, 151 309 C 158.393 309.493, 158.505 309.541, 158.830 312.391 C 159.268 316.231, 157.814 316.966, 149.750 316.985 C 144.423 316.997, 143 317.316, 143 318.500 C 143 319.823, 154.333 320, 239 320 C 322.436 320, 335 319.809, 335 318.542 C 335 317.417, 333.252 317.017, 327.355 316.792 C 321.372 316.563, 319.471 316.120, 318.610 314.750 C 317.810 313.478, 317.810 312.522, 318.610 311.250 C 319.457 309.902, 321.351 309.432, 326.855 309.206 C 332.950 308.956, 334 308.649, 334 307.119 C 334 305.433, 331.445 305.286, 291.250 304.664 C 244.137 303.935, 171.675 304.085, 154.500 304.948 M 379 372.103 C 358.949 390.378, 315.264 412.952, 285.122 420.616 C 263.210 426.186, 236.830 421.667, 208.875 407.553 C 193.107 399.593, 185.052 394.352, 165.244 379.171 C 161.018 375.931, 158.864 375.016, 154.244 374.497 C 144.006 373.346, 136.641 371.971, 129.644 369.904 C 125.874 368.790, 122.524 368.142, 122.201 368.465 C 121.879 368.788, 124.245 371.711, 127.461 374.961 C 132.003 379.551, 137.234 383.048, 150.904 390.635 C 202.140 419.072, 225.576 427.481, 257 428.700 C 294.044 430.138, 331.846 417.027, 364.762 391.324 C 373.322 384.640, 379.657 377.554, 383.092 370.819 C 384.164 368.719, 384.919 367.020, 384.770 367.045 C 384.622 367.070, 382.025 369.346, 379 372.103 M 259.378 386.389 C 252.384 389.540, 250.673 398.364, 255.918 404.234 C 263.596 412.828, 278.433 404.064, 275.091 392.908 C 273.226 386.683, 265.678 383.551, 259.378 386.389" stroke="none" fill="#877EFF" fill-rule="evenodd"/>
</svg>