<svg class="svg-icon" style="width: 1em; height: 1em;vertical-align: middle;fill: currentColor;overflow: hidden;" viewBox="0 0 1024 1024" version="1.1" xmlns="http://www.w3.org/2000/svg"><path d="M926.47619 512c0-41.447619 26.819048-78.019048 65.828572-92.647619 19.504762-7.314286 31.695238-24.380952 31.695238-43.885714V268.190476c0-53.638095-43.885714-97.52381-97.52381-97.523809H97.52381c-53.638095 0-97.52381 43.885714-97.52381 97.523809v107.276191c0 19.504762 14.628571 36.571429 31.695238 43.885714C70.704762 433.980952 97.52381 470.552381 97.52381 512c0 41.447619-26.819048 78.019048-65.828572 92.647619-17.066667 4.87619-31.695238 21.942857-31.695238 43.885714V755.809524c0 53.638095 43.885714 97.52381 97.52381 97.523809h828.95238c53.638095 0 97.52381-43.885714 97.52381-97.523809v-107.276191c0-19.504762-14.628571-36.571429-31.695238-43.885714-39.009524-14.628571-65.828571-51.2-65.828572-92.647619z" fill="#8F65FF" /><path d="M816.761905 438.857143h-609.52381c-19.504762 0-36.571429-17.066667-36.571428-36.571429S187.733333 365.714286 207.238095 365.714286h609.52381c19.504762 0 36.571429 17.066667 36.571428 36.571428s-17.066667 36.571429-36.571428 36.571429zM816.761905 658.285714h-609.52381c-19.504762 0-36.571429-17.066667-36.571428-36.571428S187.733333 585.142857 207.238095 585.142857h609.52381c19.504762 0 36.571429 17.066667 36.571428 36.571429s-17.066667 36.571429-36.571428 36.571428z" fill="#C7B2FF" /></svg>