<?xml version="1.0" standalone="no"?>
<!DOCTYPE svg PUBLIC "-//W3C//DTD SVG 20010904//EN"
 "http://www.w3.org/TR/2001/REC-SVG-20010904/DTD/svg10.dtd">
<svg version="1.0" xmlns="http://www.w3.org/2000/svg"
 width="24.000000pt" height="24.000000pt" viewBox="0 0 512.000000 512.000000"
 preserveAspectRatio="xMidYMid meet">

<g transform="translate(0.000000,512.000000) scale(0.100000,-0.100000)"
fill="#877EFF" stroke="none">
<path d="M1666 4869 c-62 -15 -153 -68 -197 -116 -22 -24 -55 -74 -72 -111
l-32 -67 -3 -327 -3 -328 -456 0 c-329 0 -467 -3 -497 -12 -55 -16 -138 -99
-154 -154 -9 -30 -12 -193 -12 -613 l0 -572 25 -24 c15 -16 36 -25 55 -25 19
0 40 9 55 25 l25 24 0 571 0 571 25 24 24 25 456 0 455 0 0 -816 c0 -612 3
-827 12 -858 16 -55 99 -138 154 -154 31 -9 276 -12 996 -12 1083 0 1015 -5
1091 80 24 26 49 66 55 88 8 27 12 157 12 431 l0 392 -25 24 c-32 33 -78 33
-110 0 l-25 -24 0 -391 0 -391 -25 -24 -24 -25 -951 0 -951 0 -24 25 -25 24 0
1014 0 1013 72 -35 72 -36 909 -5 909 -5 19 -24 c18 -22 19 -45 19 -453 l0
-429 25 -24 c15 -16 36 -25 55 -25 19 0 40 9 55 25 l25 24 0 296 0 295 495 0
496 0 24 -25 25 -24 0 -1016 0 -1015 -2160 0 -2160 0 0 335 0 336 -25 24 c-32
33 -78 33 -110 0 l-25 -24 0 -552 c0 -404 3 -563 12 -593 16 -55 99 -138 154
-154 26 -8 112 -12 233 -12 190 0 192 0 216 25 33 32 33 78 0 110 -24 25 -26
25 -215 25 -189 0 -191 0 -215 25 -24 23 -25 29 -25 160 l0 135 2160 0 2160 0
0 -135 c0 -131 -1 -137 -25 -160 l-24 -25 -1791 0 -1791 0 -24 -25 c-33 -32
-33 -78 0 -110 l24 -25 521 0 521 0 -6 -53 c-29 -248 -94 -414 -206 -529 l-57
-58 -86 0 c-79 0 -89 -2 -111 -25 -33 -32 -33 -78 0 -110 l24 -25 871 0 871 0
24 25 c33 32 33 78 0 110 -22 23 -32 25 -108 25 -81 0 -85 1 -125 35 -53 46
-122 151 -157 240 -28 72 -58 205 -69 307 l-6 58 841 0 c632 0 852 3 883 12
55 16 138 99 154 154 17 59 17 2488 0 2546 -6 22 -31 62 -55 88 -73 81 -63 80
-635 80 l-498 0 0 59 c0 71 -14 115 -51 163 l-29 37 0 326 0 326 -25 24 -24
25 -923 -1 c-516 -1 -940 -5 -962 -10z m1774 -389 l0 -240 -856 0 c-643 0
-867 3 -898 12 -55 16 -138 99 -154 154 -28 94 -8 169 63 239 27 28 66 56 85
62 24 8 299 11 898 12 l862 1 0 -240z m-605 -3487 c31 -243 79 -402 159 -527
20 -31 36 -59 36 -61 0 -3 -211 -5 -470 -5 -258 0 -470 2 -470 5 0 2 16 30 36
61 80 125 128 284 159 527 l6 47 269 0 269 0 6 -47z"/>
<path d="M2185 4535 c-16 -15 -25 -36 -25 -55 0 -19 9 -40 25 -55 l24 -25 551
0 551 0 24 25 c16 15 25 36 25 55 0 19 -9 40 -25 55 l-24 25 -551 0 -551 0
-24 -25z"/>
<path d="M1840 3827 c-49 -16 -133 -102 -148 -153 -16 -55 -16 -333 0 -388 16
-55 99 -138 154 -154 31 -9 206 -12 674 -12 468 0 643 3 674 12 55 16 138 99
154 154 16 54 16 333 0 386 -6 22 -31 62 -55 88 -75 83 -46 80 -777 79 -437
-1 -652 -5 -676 -12z m1335 -172 c24 -23 25 -28 25 -175 0 -147 -1 -152 -25
-175 l-24 -25 -631 0 -631 0 -24 25 c-24 23 -25 28 -25 175 0 147 1 152 25
175 l24 25 631 0 631 0 24 -25z"/>
<path d="M585 3575 l-25 -24 0 -551 0 -551 25 -24 c32 -33 78 -33 110 0 l25
24 0 551 0 551 -25 24 c-15 16 -36 25 -55 25 -19 0 -40 -9 -55 -25z"/>
<path d="M585 2295 c-24 -23 -25 -31 -25 -135 0 -104 1 -112 25 -135 15 -16
36 -25 55 -25 19 0 40 9 55 25 24 23 25 31 25 135 0 104 -1 112 -25 135 -15
16 -36 25 -55 25 -19 0 -40 -9 -55 -25z"/>
</g>
</svg>
