<?xml version="1.0" encoding="iso-8859-1"?>
<!-- Uploaded to: SVG Repo, www.svgrepo.com, Generator: SVG Repo Mixer Tools -->
<svg height="800px" width="800px" version="1.1" id="Layer_1" xmlns="http://www.w3.org/2000/svg" xmlns:xlink="http://www.w3.org/1999/xlink" 
	 viewBox="0 0 512 512" xml:space="preserve">
<g transform="translate(1 1)">
	<polygon style="fill:#D0E8F9;" points="7.828,47.552 502.172,47.552 502.172,330.034 7.828,330.034 	"/>
	<path style="fill:#0096E6;" d="M511,338.862H-1V38.724h512V338.862z M16.655,321.207h476.69V56.379H16.655V321.207z"/>
	<path style="fill:#FFFFFF;" d="M194.09,285.897c-32.662-20.303-53.848-56.497-53.848-97.103s21.186-76.8,53.848-97.103h-89.159
		c0,1.766,0,2.648,0,4.414c0,26.483-22.069,48.552-48.552,48.552c-1.766,0-2.648,0-4.414,0v88.276c1.766,0,2.648,0,4.414,0
		c26.483,0,48.552,22.069,48.552,48.552c0,1.766,0,2.648,0,4.414H194.09L194.09,285.897z"/>
	<path style="fill:#0096E6;" d="M194.09,294.724h-89.159c-2.648,0-4.414-0.883-6.179-2.648c-2.648-1.766-2.648-4.414-2.648-7.062
		c0-0.883,0-2.648,0-3.531c0-22.069-17.655-39.724-39.724-39.724c-0.883,0-2.648,0-3.531,0c-2.648,0-5.297-0.883-7.062-2.648
		c-1.766-0.883-2.648-3.531-2.648-6.179v-88.276c0-2.648,0.883-4.414,2.648-6.179c1.766-2.648,4.414-2.648,7.062-2.648
		c0.883,0,2.648,0,3.531,0c22.069,0,39.724-17.655,39.724-39.724c0-0.883,0-2.648,0-3.531c0-2.648,0.883-5.297,2.648-7.062
		c0.883-1.766,3.531-2.648,6.179-2.648h89.159c3.531,0,7.062,2.648,8.828,6.179c0.883,3.531-0.883,7.945-3.531,9.71
		c-31.779,20.303-50.317,53.848-50.317,90.041s18.538,69.738,49.434,90.041c3.531,1.766,5.297,6.179,3.531,9.71
		C201.152,292.076,197.621,294.724,194.09,294.724z M113.759,277.069h54.731c-23.834-22.952-37.076-54.731-37.076-88.276
		s13.241-65.324,37.076-88.276h-54.731c-1.766,28.248-24.717,50.317-52.966,52.966v70.621
		C89.041,226.752,111.11,248.821,113.759,277.069z"/>
	<path style="fill:#FFFFFF;" d="M453.621,144.655c-26.483,0-48.552-22.069-48.552-48.552c0-1.766,0-2.648,0-4.414H315.91
		c32.662,20.303,53.848,56.497,53.848,97.103s-21.186,76.8-53.848,97.103h89.159c0-1.766,0-2.648,0-4.414
		c0-26.483,22.069-48.552,48.552-48.552c1.766,0,2.648,0,4.414,0v-88.276C456.269,144.655,455.386,144.655,453.621,144.655
		L453.621,144.655z"/>
	<path style="fill:#0096E6;" d="M405.069,294.724H315.91c-3.531,0-7.062-2.648-8.828-6.179c-0.883-3.531,0.883-7.945,3.531-9.71
		c30.897-19.421,49.434-52.966,49.434-90.041s-18.538-69.738-49.434-90.041c-3.531-1.766-5.297-6.179-3.531-9.71
		c0.883-3.531,4.414-6.179,8.828-6.179h89.159c2.648,0,4.414,0.883,6.179,2.648c2.648,1.766,2.648,4.414,2.648,7.062
		c0,0.883,0,2.648,0,3.531c0,22.069,17.655,39.724,39.724,39.724c0.883,0,2.648,0,3.531,0c2.648,0,5.297,0.883,7.062,2.648
		c1.766,1.766,2.648,4.414,2.648,6.179v88.276c0,2.648-0.883,4.414-2.648,6.179c-1.766,2.648-4.414,2.648-7.062,2.648
		c-0.883,0-2.648,0-3.531,0c-22.069,0-39.724,17.655-39.724,39.724c0,0.883,0,2.648,0,3.531c0,2.648-0.883,5.297-2.648,7.062
		C409.483,293.841,407.717,294.724,405.069,294.724z M341.51,277.069h54.731c1.766-28.248,24.717-50.317,52.966-52.966v-70.621
		c-28.248-1.766-50.317-24.717-52.966-52.966H341.51c23.834,22.952,37.076,54.731,37.076,88.276S365.345,254.117,341.51,277.069z"/>
	<path style="fill:#FFFFFF;" d="M56.379,118.172c-12.359,0-22.069-9.71-22.069-22.069s9.71-22.069,22.069-22.069
		s22.069,9.71,22.069,22.069S68.738,118.172,56.379,118.172L56.379,118.172z"/>
	<path style="fill:#0096E6;" d="M56.379,127c-16.772,0-30.897-14.124-30.897-30.897s14.124-30.897,30.897-30.897
		s30.897,14.124,30.897,30.897S73.152,127,56.379,127z M56.379,82.862c-7.062,0-13.241,6.179-13.241,13.241
		s6.179,13.241,13.241,13.241s13.241-6.179,13.241-13.241S63.441,82.862,56.379,82.862z"/>
	<path style="fill:#FFFFFF;" d="M453.621,118.172c-12.359,0-22.069-9.71-22.069-22.069s9.71-22.069,22.069-22.069
		c12.359,0,22.069,9.71,22.069,22.069S465.979,118.172,453.621,118.172L453.621,118.172z"/>
	<path style="fill:#0096E6;" d="M453.621,127c-16.772,0-30.897-14.124-30.897-30.897s14.124-30.897,30.897-30.897
		s30.897,14.124,30.897,30.897S470.393,127,453.621,127z M453.621,82.862c-7.062,0-13.241,6.179-13.241,13.241
		s6.179,13.241,13.241,13.241c7.062,0,13.241-6.179,13.241-13.241S460.683,82.862,453.621,82.862z"/>
	<path style="fill:#FFFFFF;" d="M56.379,303.552c-12.359,0-22.069-9.71-22.069-22.069s9.71-22.069,22.069-22.069
		s22.069,9.71,22.069,22.069S68.738,303.552,56.379,303.552L56.379,303.552z"/>
	<path style="fill:#0096E6;" d="M56.379,312.379c-16.772,0-30.897-14.124-30.897-30.897s14.124-30.897,30.897-30.897
		s30.897,14.124,30.897,30.897S73.152,312.379,56.379,312.379z M56.379,268.241c-7.062,0-13.241,6.179-13.241,13.241
		s6.179,13.241,13.241,13.241s13.241-6.179,13.241-13.241S63.441,268.241,56.379,268.241z"/>
	<path style="fill:#FFFFFF;" d="M453.621,303.552c-12.359,0-22.069-9.71-22.069-22.069s9.71-22.069,22.069-22.069
		c12.359,0,22.069,9.71,22.069,22.069S465.979,303.552,453.621,303.552L453.621,303.552z"/>
	<path style="fill:#0096E6;" d="M453.621,312.379c-16.772,0-30.897-14.124-30.897-30.897s14.124-30.897,30.897-30.897
		s30.897,14.124,30.897,30.897S470.393,312.379,453.621,312.379z M453.621,268.241c-7.062,0-13.241,6.179-13.241,13.241
		s6.179,13.241,13.241,13.241c7.062,0,13.241-6.179,13.241-13.241S460.683,268.241,453.621,268.241z"/>
	<path style="fill:#D0E8F9;" d="M202.034,87.276c-37.076,18.538-61.793,57.379-61.793,101.517s24.717,82.979,61.793,101.517V87.276
		L202.034,87.276z"/>
	<path style="fill:#0096E6;" d="M210.862,305.317l-13.241-7.062c-40.607-21.186-66.207-63.559-66.207-109.462
		s25.6-88.276,66.207-109.462l13.241-7.062V305.317z M193.207,103.166c-27.366,19.421-44.138,51.2-44.138,85.628
		s16.772,66.207,44.138,85.628V103.166z"/>
	<path style="fill:#D0E8F9;" d="M307.966,87.276v203.917c37.076-19.421,61.793-57.379,61.793-101.517
		S345.041,105.814,307.966,87.276L307.966,87.276z"/>
	<path style="fill:#0096E6;" d="M299.138,305.317V72.269l13.241,7.062c40.607,21.186,66.207,63.559,66.207,109.462
		s-25.6,88.276-66.207,109.462L299.138,305.317z M316.793,103.166v172.138c27.366-19.421,44.138-51.2,44.138-85.628
		C360.931,154.366,344.159,122.586,316.793,103.166z"/>
	<polygon style="fill:#D0E8F9;" points="7.828,462.448 202.034,462.448 202.034,435.966 7.828,435.966 	"/>
	<path style="fill:#0096E6;" d="M210.862,471.276H-1v-44.138h211.862V471.276z M16.655,453.621h176.552v-8.828H16.655V453.621z"/>
	<polygon style="fill:#D0E8F9;" points="307.966,462.448 502.172,462.448 502.172,435.966 307.966,435.966 	"/>
	<path style="fill:#0096E6;" d="M511,471.276H299.138v-44.138H511V471.276z M316.793,453.621h176.552v-8.828H316.793V453.621z"/>
	<polygon style="fill:#D0E8F9;" points="7.828,435.966 202.034,435.966 202.034,409.483 7.828,409.483 	"/>
	<path style="fill:#0096E6;" d="M210.862,444.793H-1v-44.138h211.862V444.793z M16.655,427.138h176.552v-8.828H16.655V427.138z"/>
	<polygon style="fill:#D0E8F9;" points="307.966,435.966 502.172,435.966 502.172,409.483 307.966,409.483 	"/>
	<path style="fill:#0096E6;" d="M511,444.793H299.138v-44.138H511V444.793z M316.793,427.138h176.552v-8.828H316.793V427.138z"/>
	<polygon style="fill:#D0E8F9;" points="7.828,409.483 202.034,409.483 202.034,383 7.828,383 	"/>
	<path style="fill:#0096E6;" d="M210.862,418.31H-1v-44.138h211.862V418.31z M16.655,400.655h176.552v-8.828H16.655V400.655z"/>
	<polygon style="fill:#D0E8F9;" points="307.966,409.483 502.172,409.483 502.172,383 307.966,383 	"/>
	<path style="fill:#0096E6;" d="M511,418.31H299.138v-44.138H511V418.31z M316.793,400.655h176.552v-8.828H316.793V400.655z"/>
	<polygon style="fill:#D0E8F9;" points="7.828,383 202.034,383 202.034,356.517 7.828,356.517 	"/>
	<path style="fill:#0096E6;" d="M210.862,391.828H-1V347.69h211.862V391.828z M16.655,374.172h176.552v-8.828H16.655V374.172z"/>
	<polygon style="fill:#D0E8F9;" points="307.966,383 502.172,383 502.172,356.517 307.966,356.517 	"/>
	<path style="fill:#0096E6;" d="M511,391.828H299.138V347.69H511V391.828z M316.793,374.172h176.552v-8.828H316.793V374.172z"/>
	<polygon style="fill:#D0E8F9;" points="7.828,356.517 202.034,356.517 202.034,330.034 7.828,330.034 	"/>
	<path style="fill:#0096E6;" d="M210.862,365.345H-1v-44.138h211.862V365.345z M16.655,347.69h176.552v-8.828H16.655V347.69z"/>
	<polygon style="fill:#D0E8F9;" points="307.966,356.517 502.172,356.517 502.172,330.034 307.966,330.034 	"/>
	<path style="fill:#0096E6;" d="M511,365.345H299.138v-44.138H511V365.345z M316.793,347.69h176.552v-8.828H316.793V347.69z"/>
	<polygon style="fill:#FFFFFF;" points="202.034,47.552 307.966,47.552 307.966,462.448 202.034,462.448 	"/>
	<path style="fill:#0096E6;" d="M316.793,471.276H193.207V38.724h123.586V471.276z M210.862,453.621h88.276V56.379h-88.276V453.621z
		"/>
</g>
</svg>