<?xml version="1.0" standalone="no"?>
<!DOCTYPE svg PUBLIC "-//W3C//DTD SVG 20010904//EN"
 "http://www.w3.org/TR/2001/REC-SVG-20010904/DTD/svg10.dtd">
<svg version="1.0" xmlns="http://www.w3.org/2000/svg"
 width="14.000000pt" height="14.000000pt" viewBox="0 0 64.000000 64.000000" fill="#877EFF" 
 preserveAspectRatio="xMidYMid meet">

<g transform="translate(0.000000,64.000000) scale(0.100000,-0.100000)"
stroke="none">
<path fill="#877EFF" d="M275 590 c-61 -10 -91 -26 -139 -70 -120 -111 -121 -289 -1 -399 77
-71 166 -91 270 -62 69 20 156 106 174 174 29 103 10 194 -55 266 -67 75 -154
106 -249 91z m150 -29 c100 -45 155 -131 155 -240 -1 -153 -108 -261 -260
-261 -152 0 -260 108 -260 260 0 107 49 188 142 234 65 32 161 35 223 7z"/>
<path fill="#877EFF" d="M281 531 c-1 -8 -8 -11 -20 -8 -12 3 -22 -1 -25 -10 -3 -8 -10 -12
-15 -9 -5 3 -11 -1 -15 -9 -3 -8 -12 -12 -21 -9 -10 4 -15 2 -13 -7 2 -8 -3
-13 -11 -11 -9 2 -11 -3 -7 -13 3 -9 -1 -18 -9 -21 -8 -4 -12 -10 -9 -15 3 -5
-1 -12 -10 -15 -8 -3 -12 -12 -9 -21 3 -8 0 -19 -8 -24 -12 -7 -12 -9 0 -9 11
0 11 -3 1 -15 -10 -12 -10 -18 0 -30 10 -12 10 -15 -1 -15 -12 0 -12 -2 0 -9
8 -5 11 -16 8 -24 -3 -9 1 -18 9 -21 9 -3 13 -10 10 -15 -3 -5 1 -11 9 -15 8
-3 12 -12 9 -21 -4 -10 -2 -15 7 -13 8 2 13 -3 11 -11 -2 -9 3 -11 13 -7 9 3
18 -1 21 -9 4 -8 10 -12 15 -9 5 3 12 -1 15 -10 3 -8 12 -12 21 -9 8 3 19 0
24 -8 7 -12 9 -12 9 0 0 11 3 11 15 1 12 -10 18 -10 30 0 12 10 15 10 15 -1
0 -12 2 -12 9 0 5 8 16 11 24 8 9 -3 18 1 21 9 3 9 10 13 15 10 5 -3 11 1 15
9 3 8 12 12 21 9 10 -4 15 -2 13 7 -2 8 3 13 11 11 9 -2 11 3 7 13 -3 9 1 18
9 21 8 4 12 10 9 15 -3 5 1 12 10 15 8 3 12 12 9 21 -3 8 0 19 8 24 12 7 12
9 0 9 -11 0 -11 3 -1 15 10 12 10 18 0 30 -10 12 -10 15 1 15 12 0 12 2 0 9
-8 5 -11 16 -8 24 3 9 -1 18 -9 21 -9 3 -13 10 -10 15 3 5 -1 11 -9 15 -8 3
-12 12 -9 21 4 10 2 15 -7 13 -8 -2 -13 3 -11 11 2 9 -3 11 -13 7 -9 -3 -18 1
-21 9 -4 8 -10 12 -15 9 -5 -3 -12 1 -15 10 -3 8 -12 12 -21 9 -8 -3 -19 0 -24
8 -7 12 -9 12 -9 0 0 -11 -3 -11 -15 -1 -11 10 -18 10 -29 1 -11 -9 -15 -9 -19
1 -4 10 -6 10 -6 -1z m127 -40 c67 -34 102 -93 102 -171 0 -111 -79 -190 -190
-190 -111 0 -190 79 -190 190 0 111 77 189 188 190 33 0 67 -7 90 -19z"/>
<path fill="#877EFF" d="M290 473 c-28 -11 -29 -28 -3 -73 34 -60 49 -70 104 -70 82 0 95 15
62 72 -30 50 -119 89 -163 71z m101 -28 c27 -14 69 -68 69 -87 0 -5 -13 -8
-30 -8 -22 0 -28 4 -23 15 3 10 0 15 -8 13 -8 -2 -13 3 -11 11 2 8 -3 11 -13
8 -9 -4 -15 -1 -15 7 0 8 -11 12 -32 11 -33 -2 -48 8 -48 33 0 17 74 15 111
-3z"/>
<path fill="#877EFF" d="M185 398 c-36 -62 -12 -188 36 -188 16 0 79 88 79 110 0 22 -63 110
-79 110 -9 0 -25 -15 -36 -32z m55 3 c13 -25 13 -34 -1 -25 -8 4 -9 0 -4 -15
3 -11 3 -21 -2 -21 -5 0 -9 -9 -9 -20 0 -11 4 -20 9 -20 5 0 5 -10 2 -21 -5
-15 -4 -19 4 -15 14 9 14 0 1 -25 -14 -26 -23 -24 -43 10 -22 37 -22 105 0
142 20 34 29 36 43 10z"/>
<path fill="#877EFF" d="M328 298 c-25 -20 -68 -102 -60 -114 23 -36 114 -21 161 27 37 36 50
77 30 90 -21 13 -113 11 -131 -3z m52 -18 c0 -12 -33 -30 -55 -30 -13 0 -14 4
-5 20 11 20 60 29 60 10z m80 3 c0 -20 -42 -74 -69 -88 -37 -18 -111 -20 -111
-2 0 22 16 38 33 31 10 -4 17 -1 17 6 0 10 3 10 15 0 12 -10 15 -10 15 3 0 11
6 14 15 10 10 -3 15 0 13 8 -2 8 3 13 11 11 8 -2 11 3 8 13 -5 11 1 15 23 15
17 0 30 -3 30 -7z" />
</g>
</svg>
