<?xml version="1.0" standalone="no"?>
<!DOCTYPE svg PUBLIC "-//W3C//DTD SVG 20010904//EN"
 "http://www.w3.org/TR/2001/REC-SVG-20010904/DTD/svg10.dtd">
<svg version="1.0" xmlns="http://www.w3.org/2000/svg"
 width="48.000000pt" height="48.000000pt" 
 viewBox="0 0 48.000000 48.000000"
 preserveAspectRatio="xMidYMid meet">

<g transform="translate(0.000000,48.000000) scale(0.100000,-0.100000)"
fill="#877EFF" stroke="none">
<path d="M87 362 c-22 -24 -21 -45 1 -65 24 -22 45 -21 65 1 22 24 21 45 -1
65 -24 22 -45 21 -65 -1z"/>
<path d="M327 362 c-22 -24 -21 -45 1 -65 24 -22 45 -21 65 1 22 24 21 45 -1
65 -24 22 -45 21 -65 -1z"/>
<path d="M80 247 c-37 -18 -50 -54 -48 -122 l3 -60 60 -3 60 -3 0 93 c0 111
-13 127 -75 95z"/>
<path d="M335 253 c-5 -5 -10 -50 -10 -101 l0 -93 60 3 60 3 0 72 c0 59 -4 76
-20 92 -22 23 -74 36 -90 24z"/>
</g>
</svg>
