<?xml version="1.0" standalone="no"?>
<!DOCTYPE svg PUBLIC "-//W3C//DTD SVG 20010904//EN"
 "http://www.w3.org/TR/2001/REC-SVG-20010904/DTD/svg10.dtd">
<svg version="1.0" xmlns="http://www.w3.org/2000/svg"
 width="160.000000pt" height="240.000000pt" viewBox="0 0 160.000000 240.000000"
 preserveAspectRatio="xMidYMid meet">

<g transform="translate(0.000000,240.000000) scale(0.100000,-0.100000)"
fill="#000000" stroke="none">
<path d="M0 1240 c0 -1024 2 -1160 15 -1160 8 0 15 5 15 10 0 6 6 10 13 9 27
-3 38 2 35 19 -2 12 5 18 22 20 14 2 29 8 35 13 5 5 25 9 45 9 26 0 31 3 20
10 -12 8 -11 10 5 10 12 0 25 -4 31 -10 6 -6 18 -5 34 3 27 14 60 11 60 -4 0
-5 7 -9 16 -9 14 0 15 2 3 16 -12 15 -11 16 7 10 39 -12 117 -11 122 2 2 6 10
12 18 12 20 0 17 18 -3 23 -10 3 -1 5 19 6 20 0 44 4 54 8 12 4 15 3 10 -5 -4
-7 -1 -12 8 -12 9 0 16 3 16 8 0 4 47 3 105 -2 58 -5 108 -6 111 -3 3 3 -2 27
-11 52 -14 35 -15 49 -7 57 15 15 16 62 1 52 -8 -4 -9 18 -6 76 3 45 7 84 10
86 7 8 117 10 128 3 7 -4 8 -19 4 -40 -7 -28 -9 -31 -15 -15 -6 19 -7 19 -12
-2 -5 -17 -2 -22 14 -22 19 0 20 -4 15 -50 -4 -29 -2 -52 4 -56 6 -3 8 -13 5
-21 -5 -12 -1 -14 14 -10 22 6 25 0 11 -22 -5 -7 -13 -11 -19 -7 -5 3 -12 -8
-14 -24 -5 -30 5 -41 16 -17 5 9 7 9 12 0 3 -7 9 -13 14 -13 14 0 41 71 39
103 -4 55 13 148 27 154 8 3 14 9 14 15 0 5 -5 6 -10 3 -6 -4 -10 8 -10 29 0
48 16 54 23 9 4 -20 19 -52 35 -72 41 -51 58 -89 66 -145 3 -27 11 -55 17 -63
7 -7 9 -16 5 -20 -3 -3 -6 -1 -6 5 0 7 -4 12 -10 12 -5 0 -10 -5 -10 -11 0 -7
-8 -18 -18 -25 -16 -12 -16 -13 4 -14 44 0 39 -35 -7 -45 -16 -4 -29 -13 -29
-20 0 -8 -7 -18 -16 -23 -12 -7 -13 -10 -2 -19 14 -11 79 -16 186 -14 l63 1
-3 58 c-1 31 1 63 6 70 4 7 1 12 -8 12 -9 0 -16 9 -16 20 0 32 -38 160 -55
186 -8 13 -12 24 -8 24 4 0 -2 6 -12 14 -18 13 -18 14 -1 31 16 17 16 18 -3
36 -20 19 -20 19 -1 52 11 17 20 46 21 62 1 19 3 23 6 11 3 -10 -1 -38 -7 -63
-9 -29 -10 -47 -3 -54 10 -10 73 118 73 148 0 8 7 21 15 29 8 8 19 34 26 56 6
23 21 57 34 76 18 27 22 40 14 53 -7 14 -6 17 3 14 10 -4 13 12 12 67 -1 68 0
71 12 43 7 -16 10 -41 8 -55 -4 -19 -1 -17 10 9 9 18 14 37 11 41 -3 5 2 15
11 24 8 9 13 20 10 24 -3 5 -9 27 -14 50 -8 32 -7 42 5 46 9 4 13 -1 12 -17
-4 -39 1 -58 11 -52 6 3 10 0 10 -7 0 -8 5 -6 11 5 6 10 8 25 5 33 -3 8 -1 14
4 14 17 0 33 75 21 98 -6 11 -11 34 -11 50 0 36 -9 45 -28 29 -13 -10 -14 -9
-10 3 2 8 -2 21 -10 29 -12 12 -15 12 -23 0 -7 -11 -12 -12 -29 -1 -26 16 -45
15 -59 -2 -10 -12 -8 -17 9 -26 l22 -12 -21 -22 c-25 -27 -27 -42 -4 -54 13
-8 11 -9 -11 -9 -36 0 -60 -23 -25 -24 15 0 18 -3 9 -6 -8 -3 -24 -13 -34 -22
-11 -9 -16 -10 -12 -3 9 15 1 15 -25 1 -11 -5 -32 -35 -47 -66 -15 -31 -36
-61 -47 -67 -11 -6 -22 -12 -24 -13 -2 -2 2 -9 9 -17 10 -13 8 -21 -12 -46
-26 -35 -97 -114 -79 -88 8 11 9 18 1 23 -15 9 12 115 30 115 4 0 13 19 20 43
12 39 14 40 21 17 l7 -25 1 27 c3 68 62 149 113 153 26 2 30 9 22 39 -5 22 -9
24 -26 15 -19 -10 -20 -9 -15 10 3 14 0 24 -9 28 -8 3 -14 11 -14 19 0 8 -9
19 -20 26 -26 16 -25 24 3 32 21 6 22 7 3 21 -26 20 -15 28 19 15 39 -15 42
-5 6 16 -26 15 -31 25 -31 55 0 33 -3 38 -30 44 -16 4 -30 11 -30 17 0 6 6 8
14 5 7 -3 21 4 31 16 16 19 17 28 8 83 -6 35 -19 73 -28 86 l-17 23 7 -24 c5
-15 3 -21 -3 -17 -16 9 -11 114 5 121 8 2 16 -2 20 -11 3 -8 12 -13 19 -10 9
3 21 -9 34 -32 l19 -37 -6 35 c-6 34 -6 35 12 16 19 -18 19 -18 28 7 12 36 55
43 67 11 7 -17 17 -24 35 -24 28 0 46 -27 26 -40 -7 -4 -12 -11 -11 -16 0 -5
-14 -12 -32 -16 -39 -9 -75 6 -84 35 -5 17 -8 16 -25 -12 -11 -19 -24 -28 -33
-25 -32 12 -25 -46 8 -68 8 -6 6 -11 -4 -17 -8 -6 -11 -14 -6 -18 5 -4 11 -2
13 5 7 19 23 14 23 -8 0 -11 3 -20 8 -20 4 0 7 27 7 60 1 46 -3 60 -14 60 -11
0 -12 3 -3 12 16 16 38 -4 46 -43 3 -17 10 -28 16 -24 5 3 10 1 10 -4 0 -6 9
-11 21 -11 11 0 27 -7 35 -15 14 -13 12 -16 -11 -25 -34 -13 -42 -13 -48 3 -3
6 -6 8 -6 2 -2 -29 17 -38 58 -28 24 7 43 7 47 2 8 -14 44 -11 44 4 0 11 55
67 67 67 3 0 3 -7 -1 -15 -10 -26 3 -16 19 15 13 24 15 83 15 365 l0 335 -167
0 c-133 0 -185 -4 -248 -20 -98 -24 -95 -24 -95 0 0 16 -7 20 -30 20 -23 0
-31 -5 -36 -24 -5 -22 -17 -27 -94 -45 -48 -12 -91 -21 -94 -21 -4 0 -4 20 0
45 l6 45 -36 0 c-31 0 -36 -3 -36 -24 0 -57 -15 -72 -85 -90 -37 -9 -70 -14
-74 -11 -8 8 -8 13 -10 75 l-1 50 -300 0 -300 0 0 -1160z m520 1070 c0 -48 -1
-49 -37 -59 -83 -23 -88 -21 -91 31 l-3 47 48 14 c80 25 83 24 83 -33z m480
-46 c0 -9 -5 -46 -12 -81 -9 -50 -17 -67 -32 -74 -27 -11 -138 -30 -144 -25
-3 4 16 148 21 152 2 2 149 41 160 43 4 0 7 -6 7 -15z m-254 -91 c-3 -21 -6
-50 -6 -64 0 -23 -6 -27 -51 -37 -89 -21 -90 -20 -87 45 l3 58 60 17 c88 24
89 24 81 -19z m-226 -77 l0 -44 -51 -11 c-29 -6 -53 -10 -54 -9 -1 2 -5 20 -8
40 -6 41 -1 47 47 59 63 15 66 13 66 -35z m699 -23 c0 -10 -10 -45 -22 -78
l-22 -60 -78 -15 c-65 -13 -76 -17 -65 -28 11 -12 10 -13 -7 -10 -17 3 -20 11
-19 48 1 25 7 63 13 86 l11 41 82 15 c111 20 108 20 107 1z m-264 -85 c-13
-83 -7 -79 -118 -94 l-48 -6 7 53 c4 30 9 56 11 59 6 6 101 27 131 29 22 1 23
-2 17 -41z m-435 -93 c0 -34 -1 -35 -40 -35 -22 0 -43 -1 -47 -2 -5 -2 -9 11
-11 29 -3 28 0 32 25 36 71 10 73 9 73 -28z m810 15 c0 -5 -4 -10 -10 -10 -5
0 -10 5 -10 10 0 6 5 10 10 10 6 0 10 -4 10 -10z m105 -30 c3 -5 1 -10 -4 -10
-6 0 -11 5 -11 10 0 6 2 10 4 10 3 0 8 -4 11 -10z m-398 -16 c-3 -3 -12 -4
-19 -1 -8 3 -5 6 6 6 11 1 17 -2 13 -5z m113 -15 c0 -5 -10 -39 -22 -73 l-22
-63 -45 -2 c-46 -1 -61 -12 -61 -43 0 -20 22 -23 52 -7 34 18 39 -3 16 -66
-11 -33 -23 -62 -25 -65 -7 -7 -23 23 -23 43 0 22 -24 48 -48 51 -9 1 -25 19
-35 39 -16 31 -16 39 -5 52 32 35 37 45 43 79 8 42 11 44 67 55 62 13 108 13
108 0z m-244 -81 c-9 -65 -11 -68 -46 -68 -16 0 -40 -4 -54 -10 -23 -8 -24
-12 -15 -38 8 -25 15 -28 47 -28 36 1 37 0 34 -34 -5 -55 -11 -69 -35 -72 -19
-3 -23 -12 -29 -61 -4 -33 -17 -78 -29 -101 -25 -51 -22 -80 9 -84 24 -4 27
-17 13 -55 -10 -25 7 -118 28 -153 10 -18 10 -17 11 4 0 13 4 31 9 41 9 16 19
17 62 12 4 -1 1 -20 -6 -43 -10 -37 -17 -44 -46 -50 -18 -3 -36 -5 -40 -3 -3
2 -24 -14 -47 -35 -57 -55 -74 -53 -96 14 -10 30 -16 61 -13 69 3 8 3 18 -1
21 -3 4 -16 39 -28 79 -12 39 -31 97 -43 127 -26 67 -26 63 0 49 17 -9 23 -8
30 2 13 20 11 29 -6 29 -8 0 -15 5 -15 10 0 6 1 10 3 10 1 0 17 4 35 9 32 10
33 9 48 -30 17 -41 40 -55 29 -16 -15 53 -15 60 3 28 l20 -35 6 31 c4 18 3 41
-3 52 -13 24 -3 83 16 94 14 9 18 37 4 37 -5 0 -6 20 -3 45 4 38 1 48 -18 63
l-23 18 29 15 c16 8 29 20 30 27 1 6 2 23 3 36 1 23 16 29 125 45 5 0 5 -22 2
-51z m-354 -36 c4 -13 3 -36 -2 -52 -6 -20 -5 -30 2 -30 7 0 9 -37 7 -108 -4
-91 -8 -115 -29 -157 -14 -27 -30 -50 -36 -52 -5 -2 -18 13 -27 32 -21 43 -22
60 -2 25 16 -29 20 -14 5 24 -6 16 -6 27 0 31 6 4 10 0 10 -7 0 -7 7 0 15 15
8 16 14 31 13 35 -1 4 2 30 7 57 13 73 10 123 -8 143 -17 19 -22 40 -18 82 2
23 3 24 11 5 7 -17 9 -16 9 10 l1 30 18 -30 c10 -16 21 -40 24 -53z m158 4 c0
-48 -11 -56 -78 -56 -33 0 -33 0 -30 42 3 39 6 44 33 49 70 15 75 13 75 -35z
m550 14 c0 -5 -2 -10 -4 -10 -3 0 -8 5 -11 10 -3 6 -1 10 4 10 6 0 11 -4 11
-10z m17 -22 c-3 -8 -6 -5 -6 6 -1 11 2 17 5 13 3 -3 4 -12 1 -19z m103 18 c0
-3 -4 -8 -10 -11 -5 -3 -10 -1 -10 4 0 6 5 11 10 11 6 0 10 -2 10 -4z m37 -32
c-16 -9 -32 -13 -35 -9 -9 9 19 25 43 24 16 0 15 -2 -8 -15z m43 -13 c0 -13
-28 -22 -35 -11 -3 4 1 11 7 13 20 8 28 8 28 -2z m-393 -7 c-3 -3 -12 -4 -19
-1 -8 3 -5 6 6 6 11 1 17 -2 13 -5z m-373 -102 c3 -5 3 -25 -1 -45 -4 -29 -10
-37 -27 -37 -12 0 -28 -6 -35 -12 -11 -10 -14 -10 -18 0 -3 6 -14 13 -26 13
-16 1 -18 2 -5 6 10 3 18 16 20 36 3 28 8 33 38 38 19 4 38 7 42 8 4 0 9 -3
12 -7z m452 -9 c-10 -10 -46 -11 -46 -1 0 4 12 8 27 8 14 0 23 -3 19 -7z
m-191 -33 c14 -27 14 -30 -4 -39 -23 -13 -31 2 -24 42 7 34 9 34 28 -3z m-465
1 c0 -21 -13 -41 -26 -41 -8 0 -14 10 -14 25 0 18 5 25 20 25 11 0 20 -4 20
-9z m717 -39 c1 -30 0 -32 -12 -15 -9 12 -10 20 -3 24 6 4 3 11 -8 18 -18 11
-18 12 1 9 15 -2 20 -12 22 -36z m-617 -42 c0 -5 -4 -10 -10 -10 -5 0 -10 5
-10 10 0 6 5 10 10 10 6 0 10 -4 10 -10z m52 -15 c-5 -25 -8 -29 -21 -20 -19
11 -13 47 7 43 11 -2 16 -11 14 -23z m-277 -12 c5 -12 19 -26 32 -32 28 -13
30 -27 4 -34 -14 -3 -24 7 -44 45 -14 27 -20 47 -14 45 7 -2 16 -13 22 -24z
m629 0 c20 -56 24 -73 15 -67 -5 3 -9 -2 -9 -10 0 -15 -80 -34 -98 -22 -9 5 1
87 13 107 11 17 72 10 79 -8z m210 2 c3 -8 1 -15 -4 -15 -6 0 -10 7 -10 15 0
8 2 15 4 15 2 0 6 -7 10 -15z m-164 -104 c0 -5 3 -16 6 -25 3 -9 2 -16 -4 -16
-5 0 -12 11 -14 25 -3 14 -1 25 3 25 5 0 9 -4 9 -9z m460 -24 c0 -2 -10 -12
-21 -23 -22 -19 -22 -19 -8 4 12 19 29 30 29 19z m42 -20 c3 -16 0 -23 -13
-23 -14 0 -15 4 -6 23 6 13 11 23 12 23 2 0 5 -10 7 -23z m-953 -43 c12 -20
19 -39 15 -43 -4 -3 -9 0 -11 7 -3 6 -9 10 -14 6 -5 -3 -10 -2 -11 3 -3 16 -5
63 -2 63 1 0 12 -16 23 -36z m373 7 c-5 -46 -26 -76 -56 -79 -38 -5 -44 5 -34
55 7 35 13 42 36 46 46 7 57 3 54 -22z m-482 -47 c0 -3 16 -26 35 -51 19 -25
35 -51 35 -58 0 -7 9 -32 19 -56 11 -24 22 -60 26 -80 6 -31 4 -36 -19 -47
-23 -10 -26 -18 -26 -59 0 -56 -23 -195 -40 -238 -6 -16 -10 -48 -9 -70 1 -22
-3 -50 -9 -62 -21 -39 -15 -56 18 -51 17 3 30 1 30 -4 0 -4 -6 -8 -12 -8 -10
0 -9 -3 1 -9 23 -15 16 -100 -10 -127 -29 -31 -74 -33 -66 -3 6 22 2 25 -58
33 -24 3 -34 2 -26 -3 8 -5 11 -16 6 -30 -3 -12 -11 -19 -16 -16 -5 4 -9 1 -9
-5 0 -7 -12 -9 -35 -4 -21 4 -35 2 -35 -4 0 -15 -63 -8 -68 7 -3 8 3 20 14 28
10 7 12 13 6 13 -7 0 -12 6 -12 14 0 7 -14 16 -30 20 -44 8 -51 37 -27 110 11
34 24 72 30 86 5 14 13 34 18 45 25 63 31 103 26 162 -8 79 -3 93 34 93 22 0
29 5 29 19 0 12 12 25 30 33 17 7 30 16 30 20 0 5 6 8 13 8 18 0 49 35 40 44
-4 4 0 4 10 0 23 -8 22 -41 -2 -49 -11 -3 -22 -12 -25 -20 -3 -9 0 -12 10 -8
7 3 14 9 14 14 0 5 8 9 18 9 25 0 49 18 37 28 -15 11 -18 35 -4 26 9 -5 10 -2
6 9 -3 9 -1 17 5 19 6 2 1 20 -12 45 -16 31 -20 54 -17 92 2 28 7 54 11 58 9
10 7 25 -3 19 -5 -3 -15 9 -22 27 -7 17 -15 35 -17 40 -2 4 10 -7 27 -24 17
-17 31 -33 31 -35z m530 62 c0 -3 -4 -8 -10 -11 -5 -3 -10 -1 -10 4 0 6 5 11
10 11 6 0 10 -2 10 -4z m485 -56 c-3 -5 -12 -10 -20 -10 -8 0 -17 5 -20 10 -4
6 5 10 20 10 15 0 24 -4 20 -10z m-49 -25 c-3 -8 -1 -16 5 -19 5 -2 4 -3 -3
-2 -7 1 -15 13 -16 25 -3 16 0 21 8 16 6 -4 9 -13 6 -20z m-810 -96 c5 -38 4
-41 -7 -24 -7 11 -16 23 -21 26 -5 3 -6 18 -2 33 9 37 24 20 30 -35z m884 51
c0 -5 -2 -10 -4 -10 -3 0 -8 5 -11 10 -3 6 -1 10 4 10 6 0 11 -4 11 -10z
m-1310 -90 c0 -5 -2 -10 -4 -10 -3 0 -8 5 -11 10 -3 6 -1 10 4 10 6 0 11 -4
11 -10z m4 -56 c-1 -16 -7 -47 -14 -69 -7 -22 -14 -57 -17 -78 -5 -34 -8 -38
-32 -35 -15 2 -25 8 -23 16 1 7 -2 22 -8 32 -8 15 -8 20 1 20 6 0 9 7 5 15 -3
8 1 18 8 22 12 8 25 46 29 86 1 9 5 17 10 17 4 0 5 4 2 10 -4 6 2 7 17 1 17
-6 23 -16 22 -37z m406 24 c0 31 28 7 42 -37 15 -47 15 -50 -3 -54 -14 -4 -20
3 -25 26 -3 17 -13 37 -20 45 -8 7 -14 19 -14 25 0 7 4 6 10 -3 6 -10 10 -11
10 -2z m-270 -97 c0 -5 -7 -12 -16 -15 -14 -5 -15 -4 -4 9 14 17 20 19 20 6z
m955 -166 c-10 -30 -21 -55 -26 -55 -10 0 -6 38 8 70 6 14 15 34 18 45 16 46
16 -9 0 -60z m-617 -62 c-6 -27 -26 3 -21 32 6 29 6 29 15 5 5 -13 7 -30 6
-37z m164 -7 c11 -17 9 -28 -3 -20 -7 4 -10 1 -7 -7 3 -8 12 -13 20 -11 10 1
15 -4 14 -15 0 -12 7 -19 22 -21 12 -2 22 1 22 7 0 6 -6 11 -13 11 -13 0 -42
39 -34 46 3 3 11 -2 20 -10 8 -8 17 -12 21 -9 3 4 12 -2 20 -12 15 -21 19 -85
5 -85 -4 0 -6 6 -3 14 4 11 0 13 -15 9 -11 -3 -29 -2 -38 2 -10 5 -21 7 -25 7
-5 -1 -8 4 -8 11 0 7 -9 18 -20 25 -22 13 -27 3 -8 -16 9 -9 8 -12 -6 -12 -9
0 -14 -4 -11 -10 3 -5 2 -10 -3 -10 -5 0 -9 20 -8 44 1 30 5 42 14 39 6 -3 12
0 12 6 0 6 -4 11 -10 11 -5 0 -10 7 -10 16 0 11 6 14 23 8 12 -4 25 -12 29
-18z m-172 -136 c0 -5 6 -10 14 -10 8 0 17 -12 21 -27 7 -31 -14 -53 -52 -53
-20 0 -23 5 -23 40 0 30 4 40 16 40 8 0 12 5 9 10 -3 6 -1 10 4 10 6 0 11 -4
11 -10z m-140 -65 c0 -23 -4 -34 -12 -32 -21 4 -26 18 -14 43 16 34 26 30 26
-11z m178 -132 c2 -43 10 -84 16 -92 9 -12 3 -13 -42 -9 -29 3 -55 1 -58 -3
-3 -5 -10 -9 -17 -9 -8 0 -8 3 1 12 16 16 16 48 0 48 -9 0 -9 3 0 12 7 7 12
24 12 39 0 61 11 88 39 91 14 2 30 0 35 -4 5 -4 11 -42 14 -85z m-601 -85 c-3
-7 -5 -2 -5 12 0 14 2 19 5 13 2 -7 2 -19 0 -25z m-60 16 c-3 -3 -12 -4 -19
-1 -8 3 -5 6 6 6 11 1 17 -2 13 -5z m43 -14 c0 -4 -6 -10 -13 -13 -7 -3 -13 3
-13 13 0 10 6 16 13 13 7 -3 13 -9 13 -13z"/>
<path d="M755 1700 c-3 -5 -1 -10 4 -10 6 0 11 5 11 10 0 6 -2 10 -4 10 -3 0
-8 -4 -11 -10z"/>
<path d="M360 652 c-7 -20 -28 -70 -46 -110 -19 -41 -32 -77 -29 -82 3 -5 1
-10 -4 -12 -4 -1 -11 -12 -15 -23 -5 -17 -2 -21 19 -20 14 0 30 7 35 15 6 9
13 11 18 5 4 -5 15 -11 25 -13 14 -2 17 5 18 45 1 26 3 87 5 135 4 95 -5 117
-26 60z"/>
<path d="M246 365 c-24 -25 -19 -39 6 -15 12 11 19 22 16 25 -3 3 -13 -1 -22
-10z"/>
<path d="M278 313 c7 -3 16 -2 19 1 4 3 -2 6 -13 5 -11 0 -14 -3 -6 -6z"/>
<path d="M329 299 c16 -6 28 -6 35 1 7 7 -1 10 -24 9 -33 0 -34 -1 -11 -10z"/>
<path d="M1560 1643 c-20 -21 -34 -44 -32 -55 2 -10 -1 -18 -6 -18 -18 0 -44
-52 -46 -90 -2 -44 7 -59 49 -80 17 -8 36 -21 43 -27 7 -7 18 -13 23 -13 5 0
9 68 9 160 0 88 -1 160 -2 160 -2 -1 -19 -17 -38 -37z"/>
<path d="M1285 1620 c-4 -6 7 -10 24 -10 17 0 31 5 31 10 0 6 -11 10 -24 10
-14 0 -28 -4 -31 -10z"/>
<path d="M1385 1602 c-52 -5 -60 -11 -39 -27 13 -10 15 -17 8 -22 -17 -12 -13
-45 4 -38 12 4 13 3 2 -10 -7 -8 -10 -15 -6 -15 3 0 -3 -16 -14 -35 -23 -41
-14 -44 46 -14 26 12 51 35 64 56 l21 36 -23 24 c-22 23 -22 25 -5 38 20 14
18 14 -58 7z m19 -35 c-15 -26 -27 -37 -35 -31 -5 3 -2 16 7 29 16 24 41 25
28 2z"/>
<path d="M1288 1573 c7 -3 16 -2 19 1 4 3 -2 6 -13 5 -11 0 -14 -3 -6 -6z"/>
<path d="M1283 1518 c4 -12 7 -26 7 -29 0 -10 40 -18 40 -8 0 5 -5 9 -11 9 -6
0 -9 6 -6 13 3 7 -4 19 -15 26 -19 12 -20 11 -15 -11z"/>
<path d="M1250 1410 c0 -5 5 -10 10 -10 6 0 10 5 10 10 0 6 -4 10 -10 10 -5 0
-10 -4 -10 -10z"/>
<path d="M1440 1406 c0 -2 7 -7 16 -10 8 -3 12 -2 9 4 -6 10 -25 14 -25 6z"/>
<path d="M1570 1351 c0 -5 5 -13 10 -16 6 -3 10 -2 10 4 0 5 -4 13 -10 16 -5
3 -10 2 -10 -4z"/>
<path d="M1548 1138 c-3 -7 -1 -26 5 -41 5 -15 7 -30 4 -33 -3 -3 -8 4 -12 15
-3 12 -11 21 -16 21 -13 0 -11 -9 6 -26 17 -18 19 -45 6 -92 -6 -20 -6 -32 0
-32 5 0 9 9 9 20 0 28 21 70 32 63 6 -3 5 4 -1 15 -6 11 -14 38 -17 59 -7 43
-10 50 -16 31z"/>
<path d="M1170 1020 c0 -5 5 -10 11 -10 5 0 7 5 4 10 -3 6 -8 10 -11 10 -2 0
-4 -4 -4 -10z"/>
<path d="M1572 1000 c0 -14 2 -19 5 -12 2 6 2 18 0 25 -3 6 -5 1 -5 -13z"/>
<path d="M901 218 c-27 -9 -27 -25 0 -33 27 -9 65 1 72 19 7 17 -40 26 -72 14z"/>
<path d="M160 123 c0 -12 3 -14 8 -6 4 6 21 13 37 16 27 4 27 4 -7 6 -30 1
-38 -3 -38 -16z"/>
<path d="M285 133 c27 -2 53 -10 58 -16 6 -8 7 -7 4 3 -2 11 -19 15 -58 16
l-54 1 50 -4z"/>
<path d="M92 108 c6 -18 28 -21 28 -4 0 9 -7 16 -16 16 -9 0 -14 -5 -12 -12z"/>
<path d="M198 93 c7 -3 16 -2 19 1 4 3 -2 6 -13 5 -11 0 -14 -3 -6 -6z"/>
<path d="M53 60 c-1 -11 4 -20 12 -20 8 0 13 9 12 20 -1 11 -6 20 -12 20 -6 0
-11 -9 -12 -20z"/>
<path d="M138 73 c6 -2 18 -2 25 0 6 3 1 5 -13 5 -14 0 -19 -2 -12 -5z"/>
<path d="M56 10 c7 -7 19 -7 35 -1 23 9 22 10 -10 10 -24 1 -32 -2 -25 -9z"/>
</g>
</svg>
