<?xml version="1.0" standalone="no"?>
<!DOCTYPE svg PUBLIC "-//W3C//DTD SVG 20010904//EN"
 "http://www.w3.org/TR/2001/REC-SVG-20010904/DTD/svg10.dtd">
<svg version="1.0" xmlns="http://www.w3.org/2000/svg"
 width="40.000000pt" height="40.000000pt" viewBox="0 0 500.000000 500.000000"
 preserveAspectRatio="xMidYMid meet">

<g transform="translate(0.000000,500.000000) scale(0.100000,-0.100000)"
fill="#877EFF" stroke="none">
<path d="M2754 3800 c-50 -20 -43 -72 11 -90 19 -6 35 -18 35 -26 0 -16 -26
-19 -35 -4 -8 13 -45 13 -45 1 0 -19 32 -41 60 -41 64 0 79 63 22 92 -42 21
-46 24 -37 38 5 8 10 8 20 0 8 -6 23 -10 35 -8 18 3 19 5 8 19 -17 22 -48 30
-74 19z"/>
<path d="M1860 3740 c0 -69 21 -100 68 -100 43 0 63 29 69 99 5 57 4 61 -15
61 -19 0 -21 -7 -24 -57 -3 -55 -4 -58 -30 -61 -28 -3 -28 -3 -28 57 0 54 -2
61 -20 61 -18 0 -20 -7 -20 -60z"/>
<path d="M2030 3720 c0 -64 3 -80 15 -80 11 0 15 12 15 45 0 25 3 45 8 45 4 0
20 -20 35 -45 18 -28 36 -45 48 -45 17 0 19 8 19 80 0 73 -2 80 -20 80 -17 0
-20 -7 -20 -47 l0 -48 -31 48 c-19 28 -39 47 -50 47 -17 0 -19 -8 -19 -80z"/>
<path d="M2200 3720 c0 -73 2 -80 20 -80 18 0 20 7 20 80 0 73 -2 80 -20 80
-18 0 -20 -7 -20 -80z"/>
<path d="M2263 3788 c3 -7 16 -43 28 -80 20 -60 26 -68 49 -68 22 0 28 8 47
63 12 34 25 70 28 80 5 13 2 17 -13 17 -17 0 -25 -12 -38 -55 -10 -30 -21 -55
-24 -55 -4 0 -13 24 -21 53 -11 42 -19 53 -38 55 -16 3 -22 0 -18 -10z"/>
<path d="M2440 3720 l0 -80 50 0 c38 0 50 4 50 15 0 10 -10 15 -30 15 -23 0
-30 4 -30 20 0 15 7 20 25 20 16 0 25 6 25 15 0 9 -9 15 -25 15 -16 0 -25 6
-25 15 0 10 10 15 30 15 20 0 30 5 30 15 0 11 -12 15 -50 15 l-50 0 0 -80z"/>
<path d="M2570 3720 c0 -72 2 -80 19 -80 15 0 21 8 23 33 l3 32 18 -32 c11
-20 25 -33 37 -33 24 0 25 4 4 36 -15 23 -15 26 0 43 19 21 21 52 4 69 -7 7
-34 12 -60 12 l-48 0 0 -80z m83 44 c11 -11 -5 -34 -24 -34 -12 0 -19 7 -19
20 0 19 28 28 43 14z"/>
<path d="M2886 3728 c-31 -87 -31 -88 -6 -88 11 0 20 7 20 15 0 10 10 15 34
15 21 0 36 -6 40 -15 3 -8 14 -15 25 -15 19 0 18 3 -9 78 -23 65 -32 77 -52
80 -23 3 -28 -4 -52 -70z m67 -8 c4 -15 0 -20 -14 -20 -20 0 -23 8 -13 34 7
20 20 13 27 -14z"/>
<path d="M3040 3720 l0 -80 45 0 c33 0 45 4 45 15 0 9 -9 15 -25 15 -24 0 -25
2 -25 65 0 58 -2 65 -20 65 -18 0 -20 -7 -20 -80z"/>
<path d="M1752 3547 c-34 -11 -74 -52 -126 -129 -45 -68 -150 -207 -157 -208
-3 0 -2 24 2 53 16 112 7 247 -16 247 -7 0 -24 -26 -39 -59 -35 -78 -36 -174
-3 -246 l23 -50 -32 -70 c-17 -38 -40 -94 -50 -122 -10 -29 -22 -53 -25 -53
-4 0 -9 38 -11 85 -5 103 -18 123 -54 82 -41 -47 -31 -168 19 -240 17 -25 20
-48 22 -175 1 -81 6 -158 10 -172 5 -15 -12 2 -41 39 -46 60 -115 113 -129 99
-4 -3 -1 -25 6 -48 16 -54 90 -136 147 -163 39 -19 47 -29 67 -82 12 -33 39
-93 60 -134 l37 -74 -34 22 c-58 39 -101 55 -140 52 -43 -3 35 -110 99 -137
18 -8 54 -14 80 -14 46 -1 49 -2 81 -50 19 -27 62 -80 95 -117 35 -37 53 -63
42 -59 -65 25 -185 30 -185 8 0 -4 18 -20 40 -35 51 -36 136 -55 189 -41 36
10 43 8 108 -32 67 -40 200 -90 223 -82 6 2 -21 14 -60 27 -49 17 -70 29 -70
41 0 49 -107 206 -127 186 -10 -10 15 -94 37 -126 31 -44 24 -44 -34 -3 -114
81 -124 94 -135 173 -10 76 -51 174 -76 184 -12 4 -15 -5 -15 -44 0 -27 5 -61
10 -76 6 -15 9 -29 6 -31 -6 -6 -87 112 -131 190 l-38 69 18 36 c31 65 30 259
-1 269 -18 6 -47 -74 -53 -145 l-6 -67 -22 75 c-13 41 -28 101 -34 132 l-12
58 47 50 c26 27 56 71 66 96 25 57 37 124 22 124 -16 0 -79 -78 -108 -134
l-26 -51 6 72 c3 40 19 112 34 159 l27 87 46 11 c56 15 131 68 170 121 24 32
27 41 14 43 -17 4 -102 -34 -155 -70 l-35 -23 29 50 c16 28 58 90 95 138 51
69 75 92 110 108 69 30 109 65 136 119 14 27 25 54 25 60 0 12 -24 11 -68 -3z"/>
<path d="M2348 3550 c-432 -78 -751 -477 -725 -905 6 -96 25 -205 36 -205 4 0
14 19 22 43 l16 42 79 3 c247 10 567 -67 694 -168 l39 -31 67 46 c79 53 143
78 279 110 119 29 260 45 384 45 88 0 91 -1 97 -25 11 -43 21 -27 33 50 40
268 -45 535 -233 732 -109 116 -223 186 -386 238 -71 23 -107 28 -220 31 -74
1 -156 -1 -182 -6z m432 -130 c0 -5 -16 -10 -35 -10 l-35 0 0 -69 0 -68 -46
-7 c-26 -3 -100 -6 -164 -6 -64 0 -138 3 -164 6 l-46 7 0 68 0 69 -35 0 c-19
0 -35 5 -35 10 0 6 100 10 280 10 180 0 280 -4 280 -10z m-303 -204 c1 0 3
-49 4 -107 3 -107 -5 -144 -23 -118 -7 11 -8 9 -6 -6 2 -11 -5 -27 -16 -36
-15 -13 -17 -19 -8 -35 10 -17 11 -17 12 -1 0 9 4 17 9 17 17 0 23 -20 11 -35
-8 -10 -7 -15 5 -22 13 -8 15 -38 13 -238 l-3 -230 -43 72 c-50 84 -143 206
-215 280 l-50 52 37 82 c40 88 70 190 81 282 l7 58 92 -7 c50 -3 92 -7 93 -8z
m233 -23 c0 -74 50 -243 102 -346 l19 -39 -63 -66 c-77 -81 -144 -168 -204
-264 l-44 -72 0 231 0 231 24 15 c30 20 40 52 16 54 -10 1 -20 -7 -23 -18 -6
-22 -27 -26 -27 -5 0 8 -6 16 -12 19 -19 6 17 63 37 59 19 -4 20 17 0 24 -12
5 -15 26 -15 105 l0 98 58 4 c145 9 132 12 132 -30z m-840 -246 c0 -115 10
-175 32 -189 21 -12 72 -9 94 6 17 13 19 29 22 156 l4 141 46 -3 47 -3 0 -140
c-1 -154 -10 -185 -68 -229 -41 -30 -150 -34 -195 -7 -63 40 -72 68 -72 234
l0 147 45 0 45 0 0 -113z m1130 -64 c0 -157 7 -173 71 -173 61 0 69 21 69 177
l0 133 51 0 51 0 -4 -147 c-2 -124 -6 -153 -22 -180 -28 -46 -83 -73 -147 -73
-70 0 -118 24 -146 75 -21 36 -23 53 -23 183 l0 142 50 0 50 0 0 -137z"/>
<path d="M2320 3350 l0 -60 38 -1 c20 0 53 -2 72 -4 19 -1 83 0 143 2 l107 6
0 58 0 59 -180 0 -180 0 0 -60z"/>
<path d="M2310 3174 c0 -49 -33 -170 -72 -267 l-40 -98 65 -68 c35 -37 90
-104 122 -149 33 -45 61 -79 63 -77 2 2 3 77 3 167 -2 156 -3 164 -25 188 -13
14 -27 35 -31 48 -9 30 10 84 38 108 20 18 22 27 19 97 l-4 77 -69 0 c-67 0
-69 -1 -69 -26z"/>
<path d="M2553 3193 c-9 -3 -13 -28 -13 -75 0 -63 3 -72 29 -98 47 -48 47
-101 0 -151 l-29 -32 2 -169 3 -170 47 68 c26 38 82 109 126 159 l79 89 -34
83 c-29 71 -61 183 -78 276 -5 26 -8 27 -63 26 -31 0 -63 -3 -69 -6z"/>
<path d="M3180 3550 c0 -6 11 -33 25 -60 25 -49 71 -88 146 -122 39 -18 144
-148 195 -242 l28 -51 -25 18 c-49 35 -141 78 -161 75 -18 -3 -16 -7 17 -50
44 -56 115 -104 170 -116 39 -8 40 -8 67 -94 15 -47 30 -117 33 -155 l6 -68
-24 45 c-31 57 -102 137 -113 127 -10 -10 11 -90 37 -142 12 -22 39 -59 61
-81 38 -40 40 -44 33 -85 -9 -55 -54 -212 -63 -221 -4 -4 -7 23 -7 60 0 70
-28 156 -49 149 -31 -10 -32 -204 -1 -268 17 -35 17 -37 -5 -80 -29 -58 -151
-241 -157 -235 -3 2 1 14 7 26 13 24 30 130 24 142 -21 34 -81 -83 -93 -177
-9 -75 -34 -108 -133 -176 -62 -43 -69 -43 -38 1 22 32 47 116 37 126 -20 20
-107 -104 -121 -172 -6 -27 -15 -33 -79 -57 -40 -14 -62 -26 -51 -26 39 -2
148 38 209 76 57 35 64 37 151 37 83 1 95 4 139 31 78 48 72 59 -26 53 -46 -3
-93 -9 -104 -13 -11 -5 7 21 40 56 33 35 78 88 99 117 37 51 38 52 90 52 67 0
136 41 166 99 11 22 20 43 20 46 0 3 -15 5 -32 5 -32 0 -62 -12 -124 -51 l-31
-19 32 63 c17 34 44 94 59 134 27 67 31 72 84 100 34 17 69 45 89 71 32 42 62
117 51 128 -15 14 -87 -39 -128 -95 -24 -33 -45 -59 -46 -58 -1 1 2 25 7 52 6
28 9 102 7 166 -3 99 0 120 14 136 49 54 66 178 34 241 -36 70 -63 21 -65
-122 -1 -60 -10 -52 -41 34 -12 36 -35 90 -50 120 l-27 55 21 40 c32 60 30
201 -3 268 -13 26 -29 46 -35 44 -20 -7 -29 -104 -19 -205 5 -53 9 -98 8 -99
-1 -2 -21 25 -45 59 -23 34 -57 77 -75 97 -17 20 -44 58 -59 84 -15 27 -39 58
-53 70 -40 36 -123 60 -123 37z"/>
<path d="M1820 2132 c0 -18 138 -141 205 -184 298 -190 681 -184 975 15 50 34
180 156 180 169 0 4 -103 8 -230 8 l-230 0 0 -25 0 -25 -209 0 -210 0 -3 23
-3 22 -237 3 c-131 1 -238 -1 -238 -6z"/>
<path d="M1490 1600 c-20 -20 -27 -74 -12 -96 11 -16 48 -34 72 -34 29 0 70
44 70 75 0 61 -87 98 -130 55z m86 -37 c4 -14 2 -33 -3 -42 -22 -35 -73 -19
-73 23 0 50 65 66 76 19z"/>
<path d="M1640 1545 c0 -68 2 -75 19 -75 16 0 20 8 23 42 l3 42 28 -43 c43
-65 62 -54 63 37 1 64 -1 72 -17 72 -16 0 -19 -8 -19 -47 l0 -48 -31 48 c-19
28 -39 47 -50 47 -17 0 -19 -8 -19 -75z"/>
<path d="M1800 1545 l0 -75 45 0 c33 0 45 4 45 15 0 9 -9 15 -25 15 -24 0 -25
3 -25 60 0 53 -2 60 -20 60 -18 0 -20 -7 -20 -75z"/>
<path d="M1910 1545 c0 -60 3 -75 15 -75 12 0 15 15 15 75 0 60 -3 75 -15 75
-12 0 -15 -15 -15 -75z"/>
<path d="M1970 1545 c0 -68 2 -75 19 -75 16 0 20 8 23 42 l3 42 28 -42 c17
-26 35 -42 48 -42 18 0 20 6 18 75 -2 66 -4 75 -20 75 -16 0 -19 -8 -19 -47
l0 -48 -31 48 c-19 28 -39 47 -50 47 -17 0 -19 -8 -19 -75z"/>
<path d="M2130 1545 l0 -75 45 0 c33 0 45 4 45 15 0 9 -9 15 -25 15 -31 0 -34
27 -3 32 32 5 35 28 4 28 -16 0 -26 6 -26 15 0 9 9 15 25 15 16 0 25 6 25 15
0 11 -12 15 -45 15 l-45 0 0 -75z"/>
<path d="M2292 1559 c5 -66 21 -89 65 -89 41 0 63 33 63 95 0 48 -3 55 -20 55
-16 0 -19 -8 -22 -57 -3 -50 -6 -58 -23 -58 -17 0 -20 8 -23 58 -3 50 -6 57
-24 57 -19 0 -20 -5 -16 -61z"/>
<path d="M2450 1545 c0 -59 3 -75 14 -75 11 0 16 14 18 48 l3 47 30 -47 c17
-28 38 -48 48 -48 15 0 17 10 17 75 0 60 -3 75 -15 75 -13 0 -22 -38 -16 -72
3 -22 -21 -3 -40 32 -14 24 -30 40 -41 40 -16 0 -18 -9 -18 -75z"/>
<path d="M2610 1545 c0 -60 3 -75 15 -75 12 0 15 15 15 75 0 60 -3 75 -15 75
-12 0 -15 -15 -15 -75z"/>
<path d="M2687 1545 c22 -62 30 -75 49 -75 17 0 26 12 44 63 13 34 25 68 27
75 3 7 -3 12 -14 12 -15 0 -24 -14 -38 -57 l-18 -58 -19 58 c-15 42 -24 57
-38 57 -18 0 -18 -4 7 -75z"/>
<path d="M2830 1545 l0 -75 45 0 c33 0 45 4 45 15 0 10 -10 15 -30 15 -20 0
-30 5 -30 15 0 9 9 15 25 15 16 0 25 6 25 15 0 9 -9 15 -25 15 -16 0 -25 6
-25 15 0 10 10 15 30 15 20 0 30 5 30 15 0 11 -12 15 -45 15 l-45 0 0 -75z"/>
<path d="M2950 1545 c0 -59 3 -75 14 -75 9 0 16 12 18 33 l3 32 20 -32 c10
-18 27 -33 37 -33 17 0 17 2 4 29 -14 26 -14 30 -1 41 18 15 20 51 3 68 -7 7
-31 12 -55 12 l-43 0 0 -75z m75 25 c0 -8 -10 -16 -22 -18 -18 -3 -23 2 -23
18 0 16 5 21 23 18 12 -2 22 -10 22 -18z"/>
<path d="M3090 1600 c-15 -27 2 -55 40 -68 47 -17 38 -35 -12 -27 l-43 7 19
-21 c21 -23 65 -28 84 -9 25 25 14 58 -23 74 -19 8 -35 19 -35 25 0 6 13 7 35
3 19 -3 35 -2 35 3 0 36 -82 46 -100 13z"/>
<path d="M3220 1545 c0 -60 3 -75 15 -75 12 0 15 15 15 75 0 60 -3 75 -15 75
-12 0 -15 -15 -15 -75z"/>
<path d="M3280 1605 c0 -8 9 -15 20 -15 18 0 20 -7 20 -60 0 -47 3 -60 15 -60
12 0 15 13 15 60 0 53 2 60 20 60 11 0 20 7 20 15 0 12 -13 15 -55 15 -42 0
-55 -3 -55 -15z"/>
<path d="M3425 1573 c14 -27 25 -60 25 -75 0 -21 5 -28 20 -28 15 0 20 7 20
29 0 16 12 49 26 75 25 45 25 46 5 46 -13 0 -27 -12 -37 -32 l-16 -32 -14 32
c-9 21 -20 32 -34 32 -20 0 -20 -1 5 -47z"/>
</g>
</svg>
