<svg xmlns="http://www.w3.org/2000/svg" width="25" height="25" viewBox="0 0 512 512" version="1.1">
	<path d="M 0 256.002 L 0 512.004 256.250 511.752 L 512.500 511.500 512.752 255.750 L 513.004 0 256.502 0 L 0 0 0 256.002 M 0.492 256.500 C 0.492 397.300, 0.608 454.751, 0.750 384.170 C 0.892 313.588, 0.892 198.388, 0.750 128.170 C 0.608 57.951, 0.492 115.700, 0.492 256.500 M 234 6.084 C 206.628 8.696, 177.020 17.420, 149.400 31.011 C 73.365 68.425, 24.110 135.484, 11.322 219 C 9.112 233.436, 8.833 274.560, 10.849 289 C 16.976 332.905, 32.042 370.319, 57.358 404.500 C 68.365 419.361, 91.602 442.730, 106 453.418 C 141.628 479.865, 183.461 496.720, 228 502.572 C 244.664 504.762, 274.207 504.059, 292 501.049 C 348.834 491.436, 395.394 467.207, 434.537 426.873 C 456.303 404.445, 472.027 380.939, 483.362 353.885 C 504.111 304.359, 508.602 255.986, 497.402 202.663 C 489.755 166.260, 471.075 126.885, 447.902 98.324 C 412.599 54.816, 355.203 20.051, 301.500 9.649 C 278.908 5.273, 255.466 4.035, 234 6.084 M 228.646 22.059 C 205.494 24.748, 175.109 34.503, 152 46.666 C 114.061 66.635, 82.207 95.773, 61.991 129 C 43.687 159.084, 30.206 197.330, 26.047 230.974 C 24.709 241.800, 24.697 268.052, 26.026 279.026 C 31.304 322.634, 50.583 369.439, 76.679 402 C 91.642 420.670, 106.744 434.363, 128 448.534 C 218.563 508.910, 334.926 498.795, 414.617 423.618 C 457.781 382.900, 484.489 324.096, 486.660 265 C 488.664 210.464, 467.896 149.085, 432.693 105.500 C 413.182 81.344, 378.764 54.971, 348.299 40.832 C 329.699 32.200, 302.679 24.646, 281.026 22.026 C 271.337 20.853, 238.853 20.873, 228.646 22.059 M 221.813 46.084 C 192.427 51.344, 159.997 65.220, 134.857 83.288 C 106.720 103.511, 88.524 124.671, 73.188 155 C 61.288 178.533, 51.742 209.940, 49.400 233.267 C 48.260 244.620, 46.161 244.004, 85.905 243.978 C 116.335 243.958, 119.881 243.783, 123.541 242.120 C 128.637 239.806, 132.623 235.115, 134.074 229.724 C 135.249 225.361, 134.596 221.947, 130.489 211 C 128.295 205.152, 128.903 195.060, 131.791 189.405 C 135.806 181.543, 145.193 175.828, 151.495 177.409 C 155.876 178.509, 159 182.677, 159 187.424 C 159 192.307, 157.310 195.027, 152.386 198.070 C 146.676 201.600, 145.559 205.485, 147.417 215.357 C 148.260 219.835, 149.328 225.525, 149.790 228 L 150.631 232.500 155.240 223 C 161.582 209.925, 163 205.105, 163 196.622 C 163 189.351, 161.176 182.172, 157.484 174.913 C 155.201 170.424, 145.089 157.580, 126.572 135.649 C 118.282 125.831, 111.500 117.056, 111.500 116.149 C 111.500 115.026, 112.518 114.401, 114.693 114.191 C 118.409 113.831, 121.480 116.434, 157.500 150.471 C 185.703 177.122, 192.921 183.007, 197.390 182.994 C 198.550 182.990, 203.775 180.512, 209 177.488 C 220.080 171.073, 231.434 166.463, 238.500 165.508 C 246.284 164.456, 246.871 164.126, 247.963 160.192 C 249.068 156.214, 249.155 147.229, 248.132 142.709 L 247.500 139.917 242.186 145.964 C 235.905 153.111, 219.328 164.428, 208.591 168.898 C 199.364 172.739, 191.317 173.813, 188.500 171.578 C 186.528 170.014, 186.542 169.956, 189.500 167.501 C 192.715 164.832, 205.664 158.992, 218.216 154.552 C 228.308 150.981, 237.516 145.340, 241.102 140.530 C 247.531 131.908, 248.114 128.601, 249.574 92.500 C 251.414 46.999, 251.467 49.376, 248.545 46.455 C 246.398 44.308, 245.239 44.011, 239.295 44.085 C 235.558 44.132, 227.691 45.032, 221.813 46.084 M 262.142 45.858 C 259.468 48.532, 259.433 51.322, 261.609 88.219 C 262.914 110.339, 262.988 116.682, 262.001 121.750 C 261.331 125.187, 261.041 129.025, 261.355 130.279 C 262.436 134.584, 271.049 141.840, 281.375 147.144 C 286.874 149.968, 295.901 155.263, 301.436 158.910 C 310.023 164.568, 315.248 167.170, 322.972 169.637 C 324.268 170.051, 324.268 170.219, 322.972 171.038 C 320.427 172.648, 313.712 172.040, 307.977 169.680 C 298.411 165.744, 272.962 149.295, 266.277 142.726 C 262.855 139.363, 259.787 136.880, 259.459 137.208 C 259.131 137.535, 258.602 143.677, 258.283 150.855 L 257.702 163.907 260.101 164.861 C 261.420 165.385, 266.325 166.344, 271 166.991 C 281.205 168.405, 291.394 172.194, 299.397 177.552 C 310.778 185.172, 310.913 185.238, 313.770 184.546 C 315.271 184.182, 319.200 181.080, 322.500 177.653 C 325.800 174.225, 332.550 168.016, 337.500 163.854 C 342.450 159.692, 353.025 150.253, 361 142.878 C 388.042 117.871, 392.739 114, 396.044 114 C 397.814 114, 399.303 114.625, 399.642 115.510 C 400.377 117.425, 397.895 120.658, 380.099 140.967 C 362.642 160.889, 354.717 171.377, 350.602 180 C 347.832 185.804, 347.503 187.464, 347.530 195.500 C 347.556 203.439, 347.923 205.266, 350.636 211 C 352.328 214.575, 355.914 220.425, 358.606 224 L 363.500 230.500 363.781 219.398 C 363.936 213.291, 363.615 207.119, 363.069 205.681 C 362.522 204.243, 360.146 201.670, 357.787 199.963 C 352.533 196.158, 351.081 193.688, 351.035 188.473 C 350.989 183.231, 352.971 180.559, 358.455 178.464 C 364.233 176.257, 368.944 177.134, 373.688 181.299 C 381.826 188.444, 383.530 201.021, 378.505 216.842 C 375.533 226.198, 375.690 230.009, 379.314 236.519 C 383.428 243.908, 383.945 243.997, 423.168 243.998 C 442.236 243.999, 458.583 243.714, 459.495 243.364 C 462.895 242.059, 463.051 238.496, 460.396 222.769 C 452.755 177.511, 434.384 138.329, 407.700 110.381 C 372.439 73.449, 319.457 47.299, 273.892 44.339 C 264.959 43.759, 264.134 43.866, 262.142 45.858 M 272.001 114.123 C 268.266 115.613, 265.195 118.879, 263.932 122.705 C 262.935 125.726, 263.132 126.767, 265.653 131.808 C 267.588 135.677, 269.892 138.461, 272.847 140.500 C 277.067 143.412, 277.549 143.503, 289.347 143.597 C 305.842 143.729, 305.455 143.671, 308.868 146.543 C 311.165 148.475, 312.038 150.215, 312.506 153.793 C 313.717 163.060, 316.680 166.131, 324.524 166.249 C 330.843 166.345, 333.177 163.905, 333.786 156.571 C 334.611 146.621, 327.765 136.444, 317.051 131.693 C 310.776 128.911, 299.850 128.320, 292.767 130.379 C 283.883 132.962, 283.665 132.867, 284.404 126.750 C 284.920 122.485, 284.660 120.886, 283.019 118.225 C 281.908 116.424, 279.845 114.511, 278.434 113.975 C 275.412 112.826, 275.245 112.830, 272.001 114.123 M 227.413 116.496 C 225.134 118.775, 224.942 119.638, 225.202 126.419 C 225.359 130.504, 225.249 134.085, 224.957 134.376 C 224.666 134.667, 221.969 133.689, 218.964 132.203 C 214.317 129.904, 212.229 129.501, 205 129.505 C 197.723 129.510, 195.678 129.914, 190.786 132.312 C 181.194 137.012, 173.770 147.164, 173.590 155.824 C 173.471 161.586, 177.095 165, 183.333 165 C 188.741 165, 191.073 163.305, 194.834 156.640 C 201.029 145.663, 207.891 142.430, 222.647 143.537 C 233.749 144.369, 236.789 143.441, 240.257 138.159 C 248.464 125.660, 245.700 114, 234.531 114 C 230.936 114, 229.354 114.555, 227.413 116.496 M 246.500 182.634 C 226.426 185.723, 207.046 199.910, 198.171 218.012 C 192.714 229.145, 190.739 237.328, 190.695 249 C 190.651 260.554, 192.645 268.558, 198.258 279.366 C 208.663 299.400, 229.452 311, 254.950 311 C 273.202 311, 286.540 305.466, 299.628 292.463 C 306.156 285.977, 308.549 282.726, 311.788 275.944 C 316.645 265.772, 318 259.713, 318 248.161 C 318 219.929, 298.589 193.185, 272.135 184.971 C 265.785 182.999, 252.185 181.759, 246.500 182.634 M 170.815 185.044 C 169.417 185.859, 169.145 187.598, 169.216 195.263 C 169.324 206.736, 167.722 212.526, 159.913 228.894 C 156.661 235.710, 154 241.672, 154 242.144 C 154 243.643, 160.355 243.023, 164.500 241.119 C 170.110 238.543, 171.677 236.425, 175.426 226.347 C 177.236 221.481, 180.356 214.003, 182.359 209.728 C 186.184 201.564, 186.731 198.292, 184.878 194.684 C 183.219 191.455, 178.874 187.017, 175.800 185.411 C 172.652 183.766, 172.966 183.789, 170.815 185.044 M 330.411 187.891 C 326.162 190.482, 323 194.754, 323 197.903 C 323 199.351, 324.165 202.250, 325.589 204.345 C 331.035 212.360, 336.417 228.636, 337.821 241.336 L 338.500 247.474 344 248.314 C 349.115 249.095, 363.776 248.557, 364.782 247.551 C 365.028 247.306, 362.975 244.494, 360.222 241.302 C 348.785 228.048, 342.788 215.574, 340.488 200.256 C 339.077 190.854, 337.113 185.996, 334.727 186.004 C 334.052 186.006, 332.110 186.855, 330.411 187.891 M 246.500 197.017 C 236.311 199.048, 225.753 204.503, 218.652 211.404 C 196.658 232.780, 196.528 269.766, 218.369 291.534 C 228.848 301.977, 241.999 306.548, 259.275 305.752 C 268.321 305.335, 269.690 304.985, 277.621 301.055 C 305.307 287.336, 315.917 254.018, 301.822 225.059 C 297.875 216.950, 287.755 206.694, 279.270 202.202 C 269.335 196.943, 256.811 194.961, 246.500 197.017 M 247 203.109 C 238.332 204.521, 228.237 210.023, 221.654 216.923 C 202.920 236.564, 203.549 267.649, 223.078 287.258 C 231.859 296.074, 239.881 299.976, 250.751 300.718 C 282.907 302.915, 308.626 271.226, 300.470 239.460 C 294.063 214.509, 271.441 199.130, 247 203.109 M 248.510 240.747 C 240.453 241.157, 237.683 242.988, 235.846 249.121 C 233.530 256.850, 239.673 268.004, 248.500 272.100 C 256.141 275.645, 264.290 273.643, 271.478 266.455 C 281.591 256.343, 280.841 244.109, 269.917 240.976 C 266.622 240.031, 263.295 239.996, 248.510 240.747 M 50.432 253.710 C 48.921 255.222, 48.790 257.057, 49.305 269.460 C 50.432 296.621, 57.063 321.684, 70.586 349.898 C 81.892 373.486, 100.013 399, 105.461 399 C 107.276 399, 110.719 394.917, 112.503 390.648 C 113.382 388.544, 120.739 379.325, 128.853 370.162 C 158.648 336.511, 162.924 330.783, 164.921 321.836 C 170.395 297.314, 167.147 281.957, 153.627 268.445 C 147.370 262.192, 137.966 256.026, 134.658 256.009 C 133.267 256.002, 133.880 257.039, 137.167 260.250 C 142.126 265.095, 148.027 275.752, 150.510 284.350 C 152.237 290.326, 153.092 291.488, 159.231 296.191 C 163.773 299.669, 164.156 302.038, 162.434 316 C 161.654 322.325, 161.012 327.597, 161.008 327.715 C 161.004 327.834, 159.603 329.521, 157.896 331.465 C 155.001 334.763, 154.396 335, 148.882 335 C 143.607 335, 142.589 334.650, 139.424 331.749 C 136.786 329.332, 135.732 327.421, 135.313 324.298 C 134.819 320.613, 135.104 319.742, 137.634 317.212 C 139.221 315.625, 141.146 314.118, 141.913 313.862 C 142.951 313.516, 142.378 312.048, 139.667 308.107 C 135.712 302.356, 134.782 299.422, 133.284 287.967 C 132.122 279.071, 130.198 274.643, 124.865 268.584 C 118.739 261.624, 114.651 260.515, 71.104 254.003 C 54.778 251.562, 52.612 251.531, 50.432 253.710 M 429.818 255.959 C 417.893 258.029, 405.068 260.493, 401.318 261.435 C 382.807 266.084, 374.632 276.209, 374.522 294.619 C 374.475 302.600, 374.403 302.830, 370.290 308.109 C 366.609 312.833, 366.310 313.587, 367.803 314.374 C 377.530 319.498, 377.299 328.749, 367.316 333.878 C 360.390 337.436, 352.973 333.423, 348.017 323.434 C 345.142 317.640, 345.497 313.016, 349.615 302.624 C 358.185 280.994, 361.601 275.130, 371.141 265.675 C 379.725 257.168, 380 255.977, 372.500 259.771 C 360.367 265.910, 346.349 278.812, 342.370 287.502 C 337.726 297.647, 337.410 311.073, 341.623 319.249 C 347.185 330.044, 359.407 346.139, 380.919 371 C 388.906 380.230, 396.481 390.033, 398.113 393.250 C 401.990 400.896, 404.767 401.109, 411.139 394.250 C 438.796 364.475, 458.084 318.560, 462.032 273.100 C 463.233 259.258, 462.807 255.679, 459.698 253.501 C 456.788 251.463, 454.750 251.630, 429.818 255.959 M 158.171 255.287 L 150.843 257.325 159.381 265.413 C 171.112 276.525, 174 283.885, 174 302.674 L 174 312.250 177.250 311.613 C 181.013 310.877, 184.561 308.468, 187.310 304.786 C 189.471 301.893, 189.904 303.281, 182.691 290 C 178.773 282.786, 176.569 275.237, 174.923 263.394 C 174.320 259.052, 173.360 254.938, 172.791 254.250 C 171.378 252.545, 166.883 252.864, 158.171 255.287 M 350.310 258.060 C 344.099 258.868, 340.156 260.348, 338.741 262.400 C 338.324 263.005, 336.805 267.325, 335.366 272 C 332.610 280.955, 329.021 288.744, 324.015 296.637 C 322.357 299.252, 321 302.484, 321 303.819 C 321 306.328, 329.378 319, 331.038 319 C 331.591 319, 331.722 316.018, 331.359 311.723 C 330.526 301.866, 332.435 291.397, 336.575 283.122 C 341.392 273.494, 346.995 268.154, 362.611 258.309 C 364.251 257.274, 363.973 257.127, 360.500 257.186 C 358.300 257.223, 353.714 257.616, 350.310 258.060 M 189.294 323.250 C 183.845 329.438, 177.456 336.975, 175.097 340 C 168.749 348.142, 133.800 384.225, 124 392.754 C 115.004 400.584, 112.692 404.063, 114.066 407.697 C 114.522 408.905, 118.407 412.692, 122.698 416.112 C 155.792 442.489, 199.112 460.920, 236.509 464.534 C 242.653 465.127, 243.825 464.962, 246.009 463.195 L 248.500 461.178 249.237 435.339 C 250.035 407.345, 249.413 379.799, 247.844 373.632 C 245.845 365.780, 236.042 358.011, 220.500 351.965 C 212.088 348.692, 207.723 345.772, 203.848 340.824 C 202.006 338.473, 198.137 334.215, 195.250 331.361 C 189.724 325.899, 188.862 323.641, 191.750 322.192 C 194.767 320.678, 198.340 322.416, 201.715 327.040 C 208.560 336.418, 214.156 341.928, 219.297 344.352 C 222.159 345.701, 227.923 348.409, 232.107 350.371 C 236.291 352.333, 242.029 356.019, 244.857 358.562 L 250 363.185 250 348.112 C 250 333.293, 249.962 333.030, 247.750 332.545 C 226.192 327.819, 218.218 324.646, 207.520 316.534 C 204.230 314.040, 201.014 312, 200.371 312 C 199.729 312, 194.744 317.063, 189.294 323.250 M 303.727 316.073 C 293.617 324.407, 279.915 330.116, 266.632 331.528 L 259.764 332.258 260.382 336.769 C 260.722 339.249, 261 344.190, 261 347.748 C 261 354.155, 261.024 354.211, 263.509 353.587 C 264.889 353.241, 275.802 348.219, 287.759 342.428 C 310.045 331.635, 316.529 329.523, 318.837 332.304 C 320.313 334.082, 320.414 333.998, 311.225 338.653 C 295.719 346.507, 278.419 357.697, 272.038 364 C 261.358 374.548, 261.454 374.033, 261.734 419.438 C 261.986 460.110, 262.361 463.550, 266.657 464.629 C 275.596 466.872, 316.137 456.887, 337.441 447.194 C 365.739 434.320, 397 412.723, 397 406.047 C 397 404.328, 391.230 397.980, 375.237 382.104 C 355.306 362.319, 342.894 349.279, 318.680 322.687 C 313.829 317.359, 309.319 313, 308.658 313 C 307.997 313, 305.778 314.383, 303.727 316.073 M 181.720 335.347 C 176.811 340.256, 174.997 344.808, 175.022 352.151 C 175.049 359.896, 177.311 365.310, 182.380 369.761 C 188.344 374.997, 192.415 376.338, 202.500 376.389 C 209.920 376.427, 212.239 376.046, 215.710 374.217 C 220.904 371.482, 220.995 371.482, 221.022 374.250 C 221.058 377.923, 224.485 384.389, 227.934 387.291 C 233.178 391.703, 242.231 390.674, 245.085 385.342 C 247.825 380.222, 242.693 369.481, 235.006 364.248 C 229.859 360.744, 224.455 359.700, 215.289 360.437 C 205.393 361.234, 199.925 359.979, 196.938 356.226 C 194.974 353.759, 194.820 352.680, 195.311 344.869 C 195.981 334.225, 194.886 332, 188.977 332 C 185.876 332, 184.374 332.692, 181.720 335.347 M 319.013 340.250 C 318.493 341.488, 317.560 344.509, 316.938 346.964 C 315.527 352.537, 309.914 358.367, 304.477 359.907 C 302.290 360.527, 296.225 361.283, 291 361.587 C 285.775 361.891, 279.600 362.816, 277.278 363.642 C 267.386 367.161, 262.874 380.609, 269.766 386.031 C 276.844 391.598, 289.925 384.048, 288.596 375.162 C 288.173 372.328, 288.354 371.922, 289.796 372.475 C 294.465 374.267, 302.101 375.193, 308.937 374.797 C 320.691 374.117, 331.635 368.369, 335.589 360.800 C 337.757 356.650, 337.371 349.853, 334.742 345.898 C 332.466 342.473, 325.117 338, 321.767 338 C 320.771 338, 319.532 339.012, 319.013 340.250" stroke="none" fill="#877EFF"  fill-rule="evenodd"/>
</svg>