<?xml version="1.0" standalone="no"?>
<!DOCTYPE svg PUBLIC "-//W3C//DTD SVG 20010904//EN"
 "http://www.w3.org/TR/2001/REC-SVG-20010904/DTD/svg10.dtd">
<svg version="1.0" xmlns="http://www.w3.org/2000/svg"
 width="50.000000pt" height="50.000000pt" viewBox="0 0 50.000000 50.000000"
 preserveAspectRatio="xMidYMid meet">

<g transform="translate(0.000000,50.000000) scale(0.100000,-0.100000)"
fill="#877EFF" stroke="none">
<path d="M222 488 c-7 -7 -12 -19 -12 -28 0 -9 -11 -22 -25 -28 -35 -16 -65
-70 -65 -117 0 -60 -16 -105 -51 -141 -49 -50 -29 -74 73 -89 40 -6 47 -10 52
-36 7 -38 45 -57 81 -41 16 7 28 23 31 41 5 26 12 30 52 36 102 15 122 39 73
89 -35 36 -51 81 -51 141 0 47 -30 101 -65 117 -14 6 -25 19 -25 28 0 20 -19
40 -40 40 -9 0 -21 -5 -28 -12z m44 -19 c10 -17 -13 -36 -27 -22 -12 12 -4 33
11 33 5 0 12 -5 16 -11z m66 -77 c21 -25 28 -42 28 -75 0 -62 17 -113 51 -152
l30 -34 -23 -13 c-16 -9 -67 -13 -168 -13 -101 0 -152 4 -168 13 l-23 13 30
34 c34 39 51 90 51 151 0 44 28 90 61 102 10 4 37 7 60 6 34 0 47 -7 71 -32z
m-44 -333 c-7 -49 -69 -49 -76 0 -3 19 1 21 38 21 37 0 41 -2 38 -21z"/>
</g>
</svg>
