<?xml version="1.0" standalone="no"?>
<!DOCTYPE svg PUBLIC "-//W3C//DTD SVG 20010904//EN"
 "http://www.w3.org/TR/2001/REC-SVG-20010904/DTD/svg10.dtd">
<svg version="1.0" xmlns="http://www.w3.org/2000/svg"
 width="50.000000pt" height="50.000000pt" viewBox="0 0 50.000000 50.000000"
 preserveAspectRatio="xMidYMid meet">

<g transform="translate(0.000000,50.000000) scale(0.100000,-0.100000)"
fill="#877EFF" stroke="none">
<path d="M215 457 c-8 -13 -33 -33 -55 -46 -22 -12 -40 -26 -40 -32 0 -13 3
-12 50 15 35 20 46 22 62 13 35 -22 75 26 48 58 -18 22 -48 18 -65 -8z"/>
<path d="M305 420 c-3 -5 13 -19 35 -31 23 -13 46 -35 53 -49 14 -30 54 -34
71 -7 17 27 -4 52 -46 52 -19 1 -51 10 -71 22 -20 12 -39 18 -42 13z"/>
<path d="M42 378 c-16 -16 -15 -43 3 -58 10 -8 15 -30 15 -61 0 -27 5 -49 10
-49 6 0 10 22 10 49 0 31 5 53 15 61 28 23 11 70 -25 70 -9 0 -21 -5 -28 -12z"/>
<path d="M223 342 c-18 -12 -23 -69 -7 -89 20 -27 17 -41 -13 -55 -54 -26 -40
-38 47 -38 87 0 101 12 47 38 -30 14 -33 28 -13 55 33 43 -17 117 -61 89z"/>
<path d="M420 241 c0 -32 -5 -53 -15 -61 -20 -16 -16 -49 8 -64 36 -23 76 36
42 64 -10 8 -15 29 -15 61 0 27 -4 49 -10 49 -5 0 -10 -22 -10 -49z"/>
<path d="M42 178 c-29 -29 -1 -75 41 -65 14 4 38 -3 65 -18 23 -13 44 -20 47
-15 3 5 -13 19 -35 31 -23 13 -46 35 -53 49 -14 28 -46 37 -65 18z"/>
<path d="M326 105 c-32 -19 -43 -21 -58 -12 -35 23 -75 -26 -48 -58 18 -22 48
-18 65 8 8 13 33 33 55 46 22 12 40 26 40 32 0 13 -10 10 -54 -16z"/>
</g>
</svg>
